<svg xmlns="http://www.w3.org/2000/svg" width="81.867" height="73.679" viewBox="0 0 81.867 73.679">
  <g id="digital-business_product-manager-user" data-name="digital-business / product-manager-user" transform="translate(0.022 0.5)">
    <g id="Group_8_Copy_11" data-name="Group 8 Copy 11" transform="translate(27)">
      <circle id="Oval_22_Copy_3" data-name="Oval 22 Copy 3" cx="8.556" cy="8.556" r="8.556" transform="translate(5.444 0)" fill="none" stroke="#000" stroke-linecap="round" stroke-linejoin="round" stroke-miterlimit="10" stroke-width="2"/>
      <path id="Path_2_Copy" data-name="Path 2 Copy" d="M0,0C2.915,1.781,7.731,6.347,7.722,14.946" transform="translate(19.444 15.556)" fill="none" stroke="#000" stroke-linecap="round" stroke-linejoin="round" stroke-miterlimit="10" stroke-width="2"/>
      <path id="Path_33_Copy" data-name="Path 33 Copy" d="M26.111,15.26c-5.29,4.38-19.994,3.671-25.476.957C-1.287,15.266,1.173,2.994,7.739,0" transform="translate(0.754 15.556)" fill="none" stroke="#000" stroke-linecap="round" stroke-linejoin="round" stroke-miterlimit="10" stroke-width="2"/>
    </g>
    <g id="Group_8_Copy_12" data-name="Group 8 Copy 12" transform="translate(0 36)">
      <circle id="Oval_22_Copy_3-2" data-name="Oval 22 Copy 3" cx="6.722" cy="6.722" r="6.722" transform="translate(4.278 0)" fill="none" stroke="#000" stroke-linecap="round" stroke-linejoin="round" stroke-miterlimit="10" stroke-width="2"/>
      <path id="Path_2_Copy-2" data-name="Path 2 Copy" d="M0,0C2.29,1.4,6.074,4.987,6.067,11.744" transform="translate(15.278 12.222)" fill="none" stroke="#000" stroke-linecap="round" stroke-linejoin="round" stroke-miterlimit="10" stroke-width="2"/>
      <path id="Path_33_Copy-2" data-name="Path 33 Copy" d="M20.516,11.99C16.359,15.431,4.806,14.874.5,12.742-1.011,11.994.922,2.352,6.08,0" transform="translate(0.593 12.222)" fill="none" stroke="#000" stroke-linecap="round" stroke-linejoin="round" stroke-miterlimit="10" stroke-width="2"/>
    </g>
    <g id="Group_8_Copy_13" data-name="Group 8 Copy 13" transform="translate(30 46)">
      <circle id="Oval_22_Copy_3-3" data-name="Oval 22 Copy 3" cx="6.722" cy="6.722" r="6.722" transform="translate(4.278 0)" fill="none" stroke="#000" stroke-linecap="round" stroke-linejoin="round" stroke-miterlimit="10" stroke-width="2"/>
      <path id="Path_2_Copy-3" data-name="Path 2 Copy" d="M0,0C2.29,1.4,6.074,4.987,6.067,11.744" transform="translate(15.278 12.222)" fill="none" stroke="#000" stroke-linecap="round" stroke-linejoin="round" stroke-miterlimit="10" stroke-width="2"/>
      <path id="Path_33_Copy-3" data-name="Path 33 Copy" d="M20.516,11.99C16.359,15.431,4.806,14.874.5,12.742-1.011,11.994.922,2.352,6.08,0" transform="translate(0.593 12.222)" fill="none" stroke="#000" stroke-linecap="round" stroke-linejoin="round" stroke-miterlimit="10" stroke-width="2"/>
    </g>
    <g id="Group_8_Copy_14" data-name="Group 8 Copy 14" transform="translate(60 36)">
      <circle id="Oval_22_Copy_3-4" data-name="Oval 22 Copy 3" cx="6.722" cy="6.722" r="6.722" transform="translate(4.278 0)" fill="none" stroke="#000" stroke-linecap="round" stroke-linejoin="round" stroke-miterlimit="10" stroke-width="2"/>
      <path id="Path_2_Copy-4" data-name="Path 2 Copy" d="M0,0C2.29,1.4,6.074,4.987,6.067,11.744" transform="translate(15.278 12.222)" fill="none" stroke="#000" stroke-linecap="round" stroke-linejoin="round" stroke-miterlimit="10" stroke-width="2"/>
      <path id="Path_33_Copy-4" data-name="Path 33 Copy" d="M20.516,11.99C16.359,15.431,4.806,14.874.5,12.742-1.011,11.994.922,2.352,6.08,0" transform="translate(0.593 12.222)" fill="none" stroke="#000" stroke-linecap="round" stroke-linejoin="round" stroke-miterlimit="10" stroke-width="2"/>
    </g>
    <path id="Oval_2_Copy_2" data-name="Oval 2 Copy 2" d="M0,0C0,4.418,8.73,8,19.5,8h0C30.27,8,39,4.418,39,0" transform="translate(21 32)" fill="none" stroke="#000" stroke-linecap="round" stroke-linejoin="round" stroke-miterlimit="10" stroke-width="2"/>
  </g>
</svg>
