<svg xmlns="http://www.w3.org/2000/svg" width="74.147" height="82.221" viewBox="0 0 74.147 82.221">
  <g id="basics_brain" data-name="basics / brain" transform="translate(-0.375 0.5)">
    <g id="brain">
      <path id="Path_10" data-name="Path 10" d="M0,0" transform="translate(63 55)" fill="none" stroke="#000" stroke-linecap="round" stroke-linejoin="round" stroke-miterlimit="10" stroke-width="2"/>
      <g id="Group_12" data-name="Group 12">
        <path id="Path_9" data-name="Path 9" d="M0,1.5S.015,12.432,8.714,14.231,22.748,5.752,18.186,0" transform="translate(46.927 58.659)" fill="none" stroke="#000" stroke-linecap="round" stroke-linejoin="round" stroke-miterlimit="10" stroke-width="2"/>
        <path id="Path_16" data-name="Path 16" d="M0,18.6S7.978,15.064,7.9,8.425,4.082,0,4.082,0" transform="translate(66.097 41.532)" fill="none" stroke="#000" stroke-linecap="round" stroke-linejoin="round" stroke-miterlimit="10" stroke-width="2"/>
        <path id="Path_18" data-name="Path 18" d="M0,4.073A8.065,8.065,0,0,1,6.819,0,18.077,18.077,0,0,1,19.444,4.827a10.127,10.127,0,0,1,3.117,5.1" transform="translate(37)" fill="none" stroke="#000" stroke-linecap="round" stroke-linejoin="round" stroke-miterlimit="10" stroke-width="2"/>
        <path id="Path_19" data-name="Path 19" d="M0,0S.63,5.861,4.571,8.453a16.909,16.909,0,0,0,8.965,2.356" transform="translate(50.537 19.854)" fill="none" stroke="#000" stroke-linecap="round" stroke-linejoin="round" stroke-miterlimit="10" stroke-width="2"/>
        <path id="Path_8" data-name="Path 8" d="M0,5.84s.658,4.224,6.963,4.082S20.024,6.654,22.663,0" transform="translate(37.102 9.927) rotate(-180)" fill="none" stroke="#000" stroke-linecap="round" stroke-linejoin="round" stroke-miterlimit="10" stroke-width="2"/>
        <path id="Path_20" data-name="Path 20" d="M13.592,0S2.567,2.249.594,13.052,3.207,29.917,3.207,29.917" transform="translate(0.847 9.927)" fill="none" stroke="#000" stroke-linecap="round" stroke-linejoin="round" stroke-miterlimit="10" stroke-width="2"/>
        <path id="Path_22" data-name="Path 22" d="M0,7.22S9.457,7.125,10.829,0" transform="translate(16.244 16.244)" fill="none" stroke="#000" stroke-linecap="round" stroke-linejoin="round" stroke-miterlimit="10" stroke-width="2"/>
        <path id="Path_24" data-name="Path 24" d="M1.654,0S-1.194,6.254.862,10.012a11.7,11.7,0,0,0,10.871,6.164" transform="translate(7.218 58.713)" fill="none" stroke="#000" stroke-linecap="round" stroke-linejoin="round" stroke-miterlimit="10" stroke-width="2"/>
        <path id="Path_8-2" data-name="Path 8" d="M0,0V73.106A10.263,10.263,0,0,0,8.642,76.5c5.79-.359,8.875-5.523,9.406-8.206" transform="translate(37 4.512)" fill="none" stroke="#000" stroke-linecap="round" stroke-linejoin="round" stroke-miterlimit="10" stroke-width="2"/>
        <path id="Path_17" data-name="Path 17" d="M0,37.8s14.5-.639,17.7-11.357S17.53,6.3,12.469,2.808A15.9,15.9,0,0,0,4.553,0" transform="translate(55.049 10.029)" fill="none" stroke="#000" stroke-linecap="round" stroke-linejoin="round" stroke-miterlimit="10" stroke-width="2"/>
        <path id="Path_21" data-name="Path 21" d="M23.463,3.811A15.83,15.83,0,0,0,7.341,1.487c-9.2,3.867-9.069,16.761-3.385,20.128a19.966,19.966,0,0,0,4.022,1.849" transform="translate(0.902 35.195)" fill="none" stroke="#000" stroke-linecap="round" stroke-linejoin="round" stroke-miterlimit="10" stroke-width="2"/>
        <path id="Path_23" data-name="Path 23" d="M0,0S6.067.947,8.533,5.053a19.424,19.424,0,0,1,2.284,9.387" transform="translate(16.244 48.732)" fill="none" stroke="#000" stroke-linecap="round" stroke-linejoin="round" stroke-miterlimit="10" stroke-width="2"/>
        <path id="Path_25" data-name="Path 25" d="M18.049,1.791A11.4,11.4,0,0,1,9.829,6.3C4.61,6.511.9,4.622,0,0" transform="translate(18.951 74.902)" fill="none" stroke="#000" stroke-linecap="round" stroke-linejoin="round" stroke-miterlimit="10" stroke-width="2"/>
      </g>
    </g>
  </g>
</svg>
