<?xml version="1.0" encoding="UTF-8"?>
<svg id="Layer_1" xmlns="http://www.w3.org/2000/svg" version="1.1" viewBox="0 0 84 68">
  <!-- Generator: Adobe Illustrator 30.1.0, SVG Export Plug-In . SVG Version: 2.1.1 Build 136)  -->
  <defs>
    <style>
      .st0 {
        fill: #c2c2c2;
        stroke-width: 1.5px;
      }

      .st0, .st1 {
        display: none;
        stroke: #151515;
      }

      .st1, .st2 {
        fill: none;
      }

      .st2 {
        stroke: #3f3f3f;
        stroke-linecap: round;
        stroke-linejoin: round;
      }
    </style>
  </defs>
  <path class="st2" d="M78,1.5H6c-1.1,0-2,.9-2,2v58c0,1.1.9,2,2,2h72c1.1,0,2-.9,2-2V3.5c0-1.1-.9-2-2-2Z"/>
  <path class="st2" d="M30,7.48h11v8h-11V7.48Z"/>
  <path class="st2" d="M46,7.48h11v8h-11V7.48Z"/>
  <path class="st2" d="M62,7.48h11v8h-11V7.48Z"/>
  <path class="st2" d="M30,20.48h11v8h-11v-8Z"/>
  <path class="st2" d="M46,20.48h11v8h-11v-8Z"/>
  <path class="st2" d="M62,20.48h11v8h-11v-8Z"/>
  <path class="st2" d="M30,33.48h11v8h-11v-8Z"/>
  <path class="st2" d="M46,33.48h11v8h-11v-8Z"/>
  <path class="st2" d="M62,33.48h11v8h-11v-8Z"/>
  <path class="st2" d="M30,46.48h11v8h-11v-8Z"/>
  <path class="st2" d="M46,46.48h11v8h-11v-8Z"/>
  <path class="st2" d="M11,7.48h14v14h-14V7.48Z"/>
  <path class="st0" d="M6.25,44.5c0-1.24-1.01-2.25-2.25-2.25s-2.25,1.01-2.25,2.25,1.01,2.25,2.25,2.25,2.25-1.01,2.25-2.25Z"/>
  <path class="st1" d="M7,44.5c0-1.66-1.34-3-3-3s-3,1.34-3,3,1.34,3,3,3,3-1.34,3-3Z"/>
  <path class="st0" d="M62.25,63.5c0-1.24-1.01-2.25-2.25-2.25s-2.25,1.01-2.25,2.25,1.01,2.25,2.25,2.25,2.25-1.01,2.25-2.25Z"/>
  <path class="st1" d="M63,63.5c0-1.66-1.34-3-3-3s-3,1.34-3,3,1.34,3,3,3,3-1.34,3-3Z"/>
  <path class="st0" d="M82.25,13.5c0-1.24-1.01-2.25-2.25-2.25s-2.25,1.01-2.25,2.25,1.01,2.25,2.25,2.25,2.25-1.01,2.25-2.25Z"/>
  <path class="st1" d="M83,13.5c0-1.66-1.34-3-3-3s-3,1.34-3,3,1.34,3,3,3,3-1.34,3-3Z"/>
</svg>