<?xml version="1.0" encoding="UTF-8"?>
<svg id="Layer_1" xmlns="http://www.w3.org/2000/svg" version="1.1" viewBox="0 0 219 81">
  <!-- Generator: Adobe Illustrator 30.1.0, SVG Export Plug-In . SVG Version: 2.1.1 Build 136)  -->
  <defs>
    <style>
      .st0 {
        stroke-width: 3.6px;
      }

      .st0, .st1, .st2, .st3, .st4 {
        fill: none;
        stroke: #fff;
      }

      .st5 {
        fill: #fff;
      }

      .st1 {
        stroke-width: 2.2px;
      }

      .st2 {
        stroke-width: 1.8px;
      }

      .st3 {
        stroke-width: 1.4px;
      }
    </style>
  </defs>
  <g id="Canvas">
    <rect id="Rectangle_4" class="st0" x="4.2" y="4.41" width="40.89" height="40.89"/>
    <rect id="Rectangle_4-2" class="st1" x="8.7" y="8.91" width="32.17" height="32.17"/>
    <rect id="Rectangle_4-3" class="st2" x="12.56" y="12.77" width="24.45" height="24.45"/>
    <rect id="Rectangle_4-4" class="st3" x="16.42" y="16.63" width="16.73" height="16.73"/>
    <rect id="Rectangle_4-5" class="st4" x="19.64" y="19.85" width="10.29" height="10.29"/>
    <path id="HIGH" class="st5" d="M165.95,47.85c-.39-2.42-3.47-3.73-6.22-4.45-3.08,2.81-7.1,4.35-11.26,4.32-10.41,0-19.18-9.1-19.18-22.32,0-17.35,12.37-23.43,20.49-23.43,4.71,0,7.53,1.24,9.43,1.24,1.44,0,2.42-.39,2.42-2.03l.46-.13,5.24,16.1-.46.2c-6.28-11.26-11.07-14.73-17.08-14.73-6.68,0-12.57,5.5-12.57,21.8,0,14.66,4.71,22.19,13.16,22.19,3.36-.12,6.55-1.47,8.97-3.8v-10.6c0-3.08-.98-4.12-3.6-4.12h-.13v-.59h1.9c1.77,0,3.34.2,5.37.2s3.6-.2,5.37-.2h1.96v.59h-.2c-2.62,0-3.6,1.05-3.6,4.12v15.64h-.46ZM216.3,47.2c-1.77,0-3.34-.2-5.37-.2s-3.6.2-5.37.2h-1.9v-.59h.13c2.62,0,3.6-1.11,3.6-4.19v-16.48h-21.01v16.48c0,3.08.92,4.19,3.54,4.19h.2v.59h-1.96c-1.7,0-3.27-.2-5.3-.2s-3.6.2-5.37.2h-1.96v-.59h.2c2.62,0,3.54-1.11,3.54-4.19V7.33c0-3.01-.92-4.12-3.54-4.12h-.2v-.59h1.96c1.77,0,3.27.2,5.37.2s3.6-.2,5.3-.2h1.96v.59h-.2c-2.62,0-3.54,1.11-3.54,4.12v15.76h21.01V7.33c0-3.01-.98-4.12-3.6-4.12h-.13v-.59h1.9c1.77,0,3.34.2,5.37.2s3.6-.2,5.37-.2h1.9v.59h-.13c-2.62,0-3.6,1.11-3.6,4.12v35.09c0,3.08.98,4.19,3.6,4.19h.13v.59h-1.9ZM118.16,47.2c-1.7,0-3.27-.2-5.37-.2s-3.54.2-5.3.2h-1.96v-.59h.2c2.62,0,3.53-1.11,3.53-4.19V7.33c0-3.01-.92-4.12-3.53-4.12h-.2v-.59h1.96c1.77,0,3.27.2,5.3.2s3.67-.2,5.37-.2h1.96v.59h-.2c-2.62,0-3.53,1.11-3.53,4.12v35.09c0,3.08.92,4.19,3.53,4.19h.2v.59h-1.97ZM93.93,47.2c-1.77,0-3.34-.2-5.37-.2s-3.6.2-5.37.2h-1.9v-.59h.13c2.62,0,3.6-1.11,3.6-4.19v-16.48h-21.01v16.48c0,3.08.92,4.19,3.54,4.19h.2v.59h-1.97c-1.7,0-3.27-.2-5.3-.2s-3.6.2-5.37.2h-1.97v-.59h.2c2.62,0,3.53-1.11,3.53-4.19V7.33c0-3.01-.92-4.12-3.53-4.12h-.2v-.59h1.96c1.77,0,3.27.2,5.37.2s3.6-.2,5.3-.2h1.96v.59h-.2c-2.62,0-3.54,1.11-3.54,4.12v15.76h21.02V7.33c0-3.01-.98-4.12-3.6-4.12h-.14v-.59h1.9c1.77,0,3.34.2,5.37.2s3.6-.2,5.37-.2h1.9v.59h-.13c-2.62,0-3.6,1.11-3.6,4.12v35.09c0,3.08.98,4.19,3.6,4.19h.13v.59h-1.9Z"/>
    <path id="COHERENCE" class="st5" d="M27.8,66.89h2.07c.18,6.31,4.75,10.88,10.99,10.88s10.81-4.57,10.99-10.88h2.07c-.18,7.38-5.56,12.67-13.06,12.67-6.94.26-12.79-5.15-13.05-12.1,0-.19-.01-.38,0-.57ZM171.49,66.89h2.07c-.04,5.93,4.73,10.77,10.66,10.81.12,0,.24,0,.36,0,5.49,0,9.7-3.18,10.74-8.85l1.54,2.21c-1.71,4.99-6.35,8.38-12.31,8.38-7.42,0-12.88-5.24-13.06-12.56h0ZM.76,66.89h2.07c-.04,5.93,4.74,10.77,10.67,10.81.12,0,.24,0,.36,0,5.49,0,9.7-3.18,10.74-8.85l1.53,2.21c-1.71,4.99-6.35,8.38-12.31,8.38-7.42,0-12.88-5.24-13.06-12.56ZM203.2,79.06v-1.71h14.63v1.71h-14.63ZM200.35,79.06v-24.97h2.07v24.97h-2.07ZM165.71,79.06l-14.77-19.94c-.59-.79-.91-1.76-.89-2.75v-.18h-2.75v-2.1h2.32l14.77,19.94c.59.79.91,1.76.89,2.75v.18h2.75v2.11h-2.32ZM147.3,79.06v-22.16h2.03v22.16h-2.03ZM129.18,79.06v-1.71h14.63v1.71h-14.63ZM126.33,79.06v-24.97h2.07v24.97h-2.07ZM119.91,79.06l-12.84-10.88v-1.64h6.31c4.32,0,6.74-2,6.74-5.53,0-3.32-2.43-5.17-6.74-5.17h-6.35v-1.75h6.49c5.57,0,8.7,2.5,8.7,6.89,0,4.6-3.1,7.24-8.7,7.24h-4.71v.71h.46c.97-.02,1.91.32,2.64.96l10.95,9.17h-2.96ZM104.17,79.06v-24.97h2.07v24.97h-2.07ZM86.05,79.06v-1.71h14.63v1.71h-14.63ZM83.2,79.06v-24.97h2.07v24.97h-2.07ZM76.07,79.06v-11.24h2.03v11.24h-2.03ZM57.37,79.06v-11.24h2.07v11.24h-2.07ZM166,76.24v-22.19h2.03v22.19h-2.03ZM57.37,67.11v-1.75h20.73v1.75h-20.73ZM203.2,67.04v-1.68h13.91v1.68h-13.91ZM129.18,67.04v-1.68h13.91v1.68h-13.91ZM86.05,67.04v-1.68h13.92v1.68h-13.92ZM171.49,66.11c.18-7.28,5.64-12.56,13.06-12.56,5.96,0,10.6,3.39,12.31,8.42l-1.54,2.21c-1.03-5.67-5.24-8.88-10.74-8.88-5.93-.16-10.86,4.52-11.02,10.45,0,.12,0,.24,0,.36h-2.07ZM51.84,66.11c.06-5.91-4.69-10.75-10.6-10.81-.13,0-.25,0-.38,0-5.91-.15-10.83,4.51-10.98,10.43,0,.13,0,.25,0,.38h-2.07c.18-7.31,5.6-12.52,13.06-12.52s12.88,5.21,13.06,12.52h-2.07ZM.76,66.11c.18-7.28,5.64-12.56,13.06-12.56,5.96,0,10.6,3.39,12.31,8.42l-1.53,2.21c-1.03-5.67-5.24-8.88-10.74-8.88-5.93-.16-10.86,4.52-11.02,10.45,0,.12,0,.24,0,.36H.76ZM76.07,64.64v-10.56h2.03v10.56h-2.03ZM57.37,64.64v-10.56h2.07v10.56h-2.07ZM203.2,55.8v-1.72h14.63v1.72h-14.63ZM129.18,55.8v-1.72h14.63v1.72h-14.63ZM86.05,55.8v-1.72h14.63v1.72h-14.63Z"/>
  </g>
</svg>