<?xml version="1.0" encoding="UTF-8"?><svg id="Layer_1" xmlns="http://www.w3.org/2000/svg" viewBox="0 0 4783.44 2465.9"><defs><style>.cls-1{fill:#010101;}.cls-2{fill:#231f20;}</style></defs><path class="cls-1" d="M597.72,361.29c.08.05.15.1.23.15.42.26.86.5,1.31.69.08.03.16.06.24.09.48.19.98.34,1.49.45.05.01.1.02.15.02.56.1,1.13.17,1.71.17.58,0,1.15-.06,1.71-.17.05,0,.1-.01.16-.02.51-.1,1.01-.26,1.49-.45.08-.03.16-.06.24-.09.46-.19.89-.43,1.31-.69.08-.05.16-.1.23-.15.41-.27.79-.58,1.15-.92.06-.06.12-.12.19-.18.11-.11.22-.21.32-.32l108.89-120.95c3.27-3.64,2.88-9.15-.87-12.31-3.75-3.17-9.44-2.79-12.71.84l-93.1,103.41-.19-300.05c0-4.82-4.04-8.72-9.02-8.72-4.98,0-9.01,3.91-9.01,8.73l.19,300.05-93.23-103.3c-3.27-3.63-8.97-4-12.72-.83-2.04,1.73-3.08,4.15-3.08,6.58,0,2.03.73,4.08,2.23,5.73l109.04,120.82c.1.11.21.21.32.32.06.06.12.12.19.18.36.34.74.64,1.15.92Z"/><path class="cls-2" d="M602.85,363.36c-.58,0-1.16-.06-1.79-.17l-.16-.03c-.51-.1-1.02-.26-1.57-.47l-.25-.1c-.46-.19-.93-.44-1.39-.73l-.25-.16c-.43-.29-.84-.62-1.21-.97l-.3-.3c-.08-.08-.16-.15-.23-.23l-109.04-120.82c-1.52-1.68-2.35-3.84-2.36-6.07,0-2.67,1.19-5.21,3.26-6.96,3.95-3.34,9.96-2.95,13.41.87l92.35,102.33-.19-298.75c0-2.47.99-4.79,2.79-6.53,1.79-1.74,4.18-2.7,6.72-2.7h0c2.54,0,4.92.96,6.72,2.69,1.8,1.74,2.79,4.06,2.8,6.53l.19,298.75,92.23-102.44c3.44-3.83,9.46-4.23,13.41-.89,1.92,1.62,3.08,3.88,3.25,6.34.17,2.46-.66,4.83-2.33,6.68l-108.89,120.95c-.07.08-.15.16-.23.23l-.3.3c-.37.35-.78.68-1.21.97l-.23.15c-.48.3-.94.55-1.4.74l-.17.07c-.63.24-1.14.4-1.65.5l-.12.02c-.68.12-1.27.18-1.85.18h0ZM604.47,362.2l.25.47-.1-.49c.45-.09.92-.23,1.41-.43l.23-.09c.41-.17.83-.39,1.24-.65l.22-.14c.39-.26.75-.55,1.08-.87l.3-.29c.06-.06.12-.12.18-.18l108.89-120.95c1.49-1.65,2.22-3.76,2.07-5.95-.15-2.2-1.18-4.2-2.89-5.65-3.54-2.99-8.94-2.63-12.02.8l-93.97,104.38-.19-301.36c0-2.19-.89-4.26-2.49-5.81-1.61-1.56-3.75-2.41-6.02-2.41h0c-2.28,0-4.42.86-6.02,2.42-1.6,1.55-2.48,3.62-2.48,5.81l.19,301.36-94.1-104.26c-3.09-3.42-8.48-3.77-12.02-.78-1.85,1.56-2.91,3.82-2.9,6.2,0,1.98.75,3.9,2.1,5.4l109.04,120.82c.06.06.12.12.18.18l.29.29c.33.31.7.61,1.08.87l.19.12c.45.28.86.5,1.27.67l.23.09c.5.19.96.33,1.41.42l.15.02c.57.11,1.08.11,1.62.16.52,0,1.05-.05,1.62-.16Z"/><path class="cls-1" d="M219.76,147.4L117.54,30.28c-.1-.11-.2-.21-.31-.31-.05-.06-.11-.11-.16-.17-.34-.33-.7-.63-1.08-.89-.07-.05-.14-.09-.21-.14-.39-.26-.8-.48-1.23-.67-.07-.03-.15-.06-.22-.09-.45-.18-.92-.33-1.4-.43-.05,0-.1-.01-.15-.02-.52-.1-1.06-.16-1.6-.16s-1.08.06-1.6.16c-.05,0-.1.01-.15.02-.48.1-.95.25-1.4.43-.07.03-.15.06-.22.09-.43.19-.84.41-1.23.67-.07.05-.14.09-.21.14-.38.27-.74.56-1.08.89-.06.06-.11.11-.16.17-.1.1-.21.2-.31.31L2.59,147.4c-3.07,3.52-2.71,8.86.81,11.93,1.6,1.4,3.58,2.09,5.56,2.09,2.36,0,4.7-.98,6.37-2.89L102.72,58.38v290.72c0,4.67,3.79,8.45,8.45,8.45s8.45-3.78,8.45-8.45V58.38l87.4,100.14c3.07,3.52,8.41,3.88,11.93.81,3.52-3.07,3.88-8.41.81-11.93Z"/><path class="cls-2" d="M111.17,358.05c-4.94,0-8.95-4.02-8.95-8.95V59.72L15.7,158.85c-1.7,1.95-4.16,3.07-6.75,3.07-2.16,0-4.25-.78-5.88-2.21-1.8-1.57-2.88-3.75-3.05-6.14-.16-2.39.61-4.69,2.19-6.5L104.43,29.95c.07-.08.15-.16.23-.24l.27-.28c.35-.34.74-.66,1.15-.95l.2-.13c.46-.3.9-.54,1.33-.73l.16-.06c.59-.24,1.07-.39,1.56-.49l.11-.02c1.28-.24,2.25-.24,3.44,0l.15.02c.49.1.97.25,1.49.46l.24.09c.43.19.87.43,1.31.71l.23.15c.41.28.79.6,1.15.95l.27.27c.08.08.16.15.23.24l102.22,117.12c1.57,1.8,2.35,4.11,2.19,6.5-.16,2.39-1.24,4.57-3.05,6.14-3.72,3.24-9.39,2.86-12.63-.86L120.13,59.72v289.38c0,4.94-4.02,8.95-8.95,8.95ZM103.22,57.05v292.05c0,4.39,3.57,7.95,7.95,7.95s7.95-3.57,7.95-7.95V57.05l88.27,101.14c2.88,3.3,7.92,3.65,11.22.76,1.6-1.4,2.56-3.33,2.71-5.45.14-2.12-.55-4.17-1.94-5.77L117.17,30.61c-.06-.07-.12-.12-.18-.18l-.27-.27c-.31-.31-.66-.59-1.02-.84l-.17-.11c-.42-.27-.81-.48-1.19-.65l-.21-.08c-.46-.18-.89-.32-1.32-.41l-.14-.02c-1.06-.2-1.95-.2-3.01,0l-.24-.47.1.49c-.43.09-.86.22-1.32.41l-.21.08c-.39.17-.78.38-1.16.63l-.2.13c-.36.25-.71.53-1.02.84l-.27.27c-.06.06-.12.12-.18.18L2.96,147.73c-1.4,1.6-2.09,3.65-1.94,5.77.14,2.12,1.11,4.06,2.71,5.45,1.45,1.27,3.3,1.96,5.23,1.96,2.3,0,4.48-.99,6-2.72L103.22,57.05Z"/><path class="cls-1" d="M4044,211.51h-148.74l35.48-35.48c3.3-3.3,3.3-8.66,0-11.96-3.3-3.3-8.66-3.3-11.96,0l-49.92,49.92c-3.3,3.3-3.3,8.66,0,11.96l49.95,49.95c1.65,1.65,3.82,2.48,5.98,2.48s4.33-.83,5.98-2.48c3.3-3.3,3.3-8.66,0-11.96l-35.51-35.51h148.74c4.67,0,8.46-3.79,8.46-8.46s-3.79-8.46-8.46-8.46Z"/><path class="cls-2" d="M3924.79,278.87c-2.39,0-4.64-.93-6.33-2.62l-49.95-49.95c-1.69-1.69-2.62-3.94-2.62-6.33s.93-4.64,2.62-6.33l49.92-49.92c3.49-3.49,9.18-3.49,12.67,0,1.69,1.69,2.62,3.94,2.62,6.33s-.93,4.64-2.62,6.33l-34.63,34.63h147.53c4.94,0,8.96,4.02,8.96,8.96s-4.02,8.96-8.96,8.96h-147.53l34.66,34.66c1.69,1.69,2.62,3.94,2.62,6.33s-.93,4.64-2.62,6.33c-1.69,1.69-3.94,2.62-6.33,2.62ZM3924.77,162.09c-2.04,0-4.08.78-5.63,2.33l-49.92,49.92c-1.5,1.5-2.33,3.5-2.33,5.63s.83,4.12,2.33,5.63l49.95,49.95c1.5,1.5,3.5,2.33,5.63,2.33s4.12-.83,5.63-2.33c1.5-1.5,2.33-3.5,2.33-5.63s-.83-4.12-2.33-5.63l-36.36-36.36h149.95c4.39,0,7.96-3.57,7.96-7.96s-3.57-7.96-7.96-7.96h-149.95l36.34-36.34c1.5-1.5,2.33-3.5,2.33-5.63s-.83-4.12-2.33-5.63c-1.55-1.55-3.59-2.33-5.63-2.33Z"/><path class="cls-1" d="M4277.95,214.02l-49.95-49.95c-3.3-3.3-8.66-3.3-11.96,0-3.3,3.3-3.3,8.66,0,11.96l35.51,35.51h-148.74c-4.67,0-8.46,3.79-8.46,8.46s3.79,8.46,8.46,8.46h148.74l-35.48,35.48c-3.3,3.3-3.3,8.66,0,11.96,1.65,1.65,3.82,2.48,5.98,2.48s4.33-.83,5.98-2.48l49.92-49.92c3.3-3.3,3.3-8.66,0-11.96Z"/><path class="cls-2" d="M4222.05,278.88c-2.39,0-4.64-.93-6.33-2.62s-2.62-3.94-2.62-6.33.93-4.64,2.62-6.33l34.63-34.63h-147.53c-4.94,0-8.96-4.02-8.96-8.96s4.02-8.96,8.96-8.96h147.53l-34.66-34.66c-1.69-1.69-2.62-3.94-2.62-6.33s.93-4.64,2.62-6.33c3.49-3.49,9.18-3.49,12.67,0l49.95,49.95c1.69,1.69,2.62,3.94,2.62,6.33s-.93,4.64-2.62,6.33l-49.92,49.92c-1.69,1.69-3.94,2.62-6.33,2.62ZM4102.82,212.05c-4.39,0-7.96,3.57-7.96,7.96s3.57,7.96,7.96,7.96h149.95l-36.34,36.34c-1.5,1.5-2.33,3.5-2.33,5.63s.83,4.12,2.33,5.63c1.5,1.5,3.5,2.33,5.63,2.33s4.12-.83,5.63-2.33l49.92-49.92c1.5-1.5,2.33-3.5,2.33-5.63s-.83-4.12-2.33-5.63l-49.95-49.95c-3.1-3.1-8.15-3.1-11.25,0-1.5,1.5-2.33,3.5-2.33,5.63s.83,4.12,2.33,5.63l36.36,36.36h-149.95Z"/><path class="cls-1" d="M1603.44,384.44c-2.11,0-4.21-.77-5.85-2.32l-149.31-140.78c-3.43-3.23-3.59-8.63-.35-12.06,3.23-3.42,8.63-3.58,12.06-.35l143.61,135.41,152-135.57c3.51-3.15,8.91-2.83,12.04.69,3.14,3.52,2.83,8.91-.69,12.04l-157.84,140.78c-1.62,1.45-3.65,2.17-5.68,2.17Z"/><path class="cls-2" d="M1603.44,384.94c-2.31,0-4.52-.87-6.2-2.46l-149.31-140.78c-3.62-3.42-3.79-9.14-.38-12.77,3.42-3.62,9.14-3.79,12.77-.38l143.28,135.09,151.66-135.26c1.79-1.61,4.1-2.42,6.51-2.28,2.41.14,4.63,1.21,6.24,3.01,1.61,1.8,2.41,4.12,2.28,6.53-.14,2.41-1.21,4.62-3.01,6.22l-157.84,140.78c-1.66,1.48-3.79,2.29-6.01,2.29ZM1454.13,227.11c-2.14,0-4.27.84-5.84,2.51-3.04,3.22-2.89,8.31.33,11.35l149.31,140.78c1.49,1.41,3.45,2.19,5.51,2.19s3.87-.72,5.35-2.04l157.84-140.78c1.6-1.43,2.55-3.39,2.67-5.53.12-2.14-.6-4.2-2.02-5.8-1.43-1.61-3.4-2.56-5.55-2.68-2.13-.12-4.2.6-5.79,2.03l-152.35,135.87-143.95-135.72c-1.55-1.46-3.53-2.18-5.51-2.18Z"/><path class="cls-1" d="M1603.44,384.44c-4.71,0-8.53-3.82-8.53-8.53V9.03c0-4.71,3.82-8.53,8.53-8.53s8.53,3.82,8.53,8.53v366.87c0,4.71-3.82,8.53-8.53,8.53Z"/><path class="cls-2" d="M1603.44,384.94c-4.98,0-9.03-4.05-9.03-9.03V9.03c0-4.98,4.05-9.03,9.03-9.03s9.03,4.05,9.03,9.03v366.87c0,4.98-4.05,9.03-9.03,9.03ZM1603.44,1c-4.43,0-8.03,3.6-8.03,8.03v366.87c0,4.43,3.6,8.03,8.03,8.03s8.03-3.6,8.03-8.03V9.03c0-4.43-3.6-8.03-8.03-8.03Z"/><path class="cls-1" d="M966.97,161.08c-2.16,0-4.31-.89-5.86-2.62-2.89-3.23-2.6-8.2.63-11.08l145.19-129.5c3.04-2.71,7.65-2.65,10.61.15l137.35,129.5c3.15,2.97,3.3,7.94.33,11.09-2.97,3.16-7.94,3.3-11.09.33l-132.11-124.56-139.82,124.7c-1.49,1.34-3.36,1.99-5.22,1.99Z"/><path class="cls-2" d="M1249.5,161.58c-2.14,0-4.16-.8-5.72-2.28l-131.77-124.24-139.48,124.4c-1.53,1.37-3.5,2.12-5.55,2.12-2.38,0-4.65-1.02-6.23-2.79-1.48-1.66-2.23-3.81-2.1-6.03.13-2.23,1.11-4.27,2.78-5.75l145.19-129.5c3.26-2.91,8.11-2.84,11.28.15l137.34,129.5c1.62,1.53,2.55,3.6,2.62,5.83.07,2.23-.74,4.35-2.27,5.97-1.53,1.62-3.6,2.55-5.83,2.62-.08,0-.17,0-.25,0ZM1112.03,33.7l.33.31,132.11,124.56c1.43,1.35,3.31,2.05,5.26,2,1.96-.06,3.78-.88,5.13-2.31,1.35-1.43,2.06-3.3,2-5.26-.06-1.96-.88-3.78-2.3-5.13l-137.34-129.5c-2.79-2.64-7.06-2.7-9.93-.14l-145.19,129.5c-1.46,1.31-2.33,3.1-2.44,5.06-.11,1.96.55,3.85,1.85,5.31,1.39,1.56,3.39,2.46,5.49,2.46,1.81,0,3.54-.66,4.89-1.87l140.17-125.01Z"/><path class="cls-1" d="M1112.16,249.06c-4.33,0-7.85-3.51-7.85-7.85V23.73c0-4.33,3.51-7.85,7.85-7.85s7.85,3.51,7.85,7.85v217.48c0,4.33-3.51,7.85-7.85,7.85Z"/><path class="cls-2" d="M1112.16,249.56c-4.6,0-8.35-3.75-8.35-8.35V23.73c0-4.6,3.75-8.35,8.35-8.35s8.35,3.75,8.35,8.35v217.48c0,4.6-3.75,8.35-8.35,8.35ZM1112.16,16.38c-4.05,0-7.35,3.3-7.35,7.35v217.48c0,4.05,3.3,7.35,7.35,7.35s7.35-3.3,7.35-7.35V23.73c0-4.05-3.3-7.35-7.35-7.35Z"/><path d="M3747.03,237.97h-322.79c-1.66,0-3-1.34-3-3s1.34-3,3-3h322.79c1.66,0,3,1.34,3,3s-1.34,3-3,3Z"/><path d="M3747.03,242.97h-322.79c-4.41,0-8-3.59-8-8s3.59-8,8-8h322.79c4.41,0,8,3.59,8,8s-3.59,8-8,8Z"/><path d="M3544.93,343.3c-.7,0-1.4-.24-1.97-.74l-120.68-105.33c-.65-.57-1.03-1.39-1.03-2.26s.38-1.69,1.03-2.26l120.68-105.33c1.25-1.09,3.14-.96,4.23.29,1.09,1.25.96,3.14-.29,4.23l-118.09,103.07,118.09,103.07c1.25,1.09,1.38,2.98.29,4.23-.59.68-1.42,1.03-2.26,1.03Z"/><path d="M3544.93,348.3c-1.93,0-3.8-.7-5.26-1.97l-120.68-105.33c-1.74-1.52-2.74-3.72-2.74-6.03s1-4.51,2.74-6.03l120.68-105.33c1.61-1.4,3.67-2.1,5.8-1.95,2.13.14,4.08,1.11,5.49,2.72,1.4,1.61,2.1,3.67,1.95,5.8-.14,2.13-1.11,4.08-2.72,5.49l-113.78,99.3,113.78,99.3c1.61,1.41,2.58,3.35,2.72,5.49.14,2.13-.55,4.19-1.96,5.8-1.52,1.74-3.71,2.74-6.03,2.74Z"/><path d="M3245.42,195.47h-336.36c-1.66,0-3-1.34-3-3s1.34-3,3-3h336.36c1.66,0,3,1.34,3,3s-1.34,3-3,3Z"/><path d="M3245.42,200.47h-336.36c-4.41,0-8-3.59-8-8s3.59-8,8-8h336.36c4.41,0,8,3.59,8,8s-3.59,8-8,8Z"/><path d="M3119.66,305.23c-.84,0-1.67-.35-2.26-1.03-1.09-1.25-.96-3.14.29-4.23l123.17-107.5-123.17-107.5c-1.25-1.09-1.38-2.98-.29-4.23,1.09-1.25,2.99-1.38,4.23-.29l125.76,109.76c.65.57,1.03,1.39,1.03,2.26s-.38,1.69-1.03,2.26l-125.76,109.76c-.57.5-1.27.74-1.97.74Z"/><path d="M3119.66,310.22c-2.31,0-4.51-1-6.03-2.74-1.4-1.61-2.1-3.67-1.95-5.8.14-2.13,1.11-4.08,2.72-5.49l118.85-103.73-118.85-103.73c-1.61-1.41-2.58-3.35-2.72-5.49-.14-2.13.55-4.19,1.96-5.8,1.41-1.61,3.35-2.58,5.49-2.72,2.13-.14,4.19.55,5.8,1.95l125.76,109.76c1.74,1.52,2.74,3.72,2.74,6.03s-1,4.51-2.74,6.03l-125.76,109.76c-1.46,1.27-3.33,1.97-5.26,1.97Z"/><path d="M2087.73,372.19c-1.66,0-3-1.34-3-3V15.75c0-1.66,1.34-3,3-3s3,1.34,3,3v353.44c0,1.66-1.34,3-3,3Z"/><path d="M2087.73,377.19c-4.41,0-8-3.59-8-8V15.75c0-4.41,3.59-8,8-8s8,3.59,8,8v353.44c0,4.41-3.59,8-8,8Z"/><path d="M1972.4,150.89c-.7,0-1.4-.24-1.97-.74-1.25-1.09-1.38-2.98-.29-4.23l115.33-132.14c.57-.65,1.39-1.03,2.26-1.03s1.69.37,2.26,1.03l115.33,132.14c1.09,1.25.96,3.14-.29,4.23-1.25,1.09-3.14.96-4.23-.29l-113.07-129.55-113.07,129.55c-.59.68-1.43,1.03-2.26,1.03Z"/><path d="M2203.07,155.89c-.18,0-.37,0-.55-.02-2.13-.14-4.08-1.11-5.49-2.72l-109.3-125.23-109.3,125.24c-1.52,1.74-3.72,2.74-6.03,2.74-1.93,0-3.8-.7-5.26-1.97-3.32-2.9-3.67-7.96-.77-11.29l115.33-132.14c1.52-1.74,3.72-2.74,6.03-2.74s4.51,1,6.03,2.74l115.33,132.14c2.9,3.32,2.56,8.39-.77,11.29-1.47,1.28-3.32,1.97-5.25,1.97Z"/><path d="M2575.81,366.01c-1.66,0-3-1.34-3-3V21.93c0-1.66,1.34-3,3-3s3,1.34,3,3v341.07c0,1.66-1.34,3-3,3Z"/><path d="M2575.81,371.01c-4.41,0-8-3.59-8-8V21.93c0-4.41,3.59-8,8-8s8,3.59,8,8v341.07c0,4.41-3.59,8-8,8Z"/><path d="M2575.81,366.01c-.87,0-1.69-.37-2.26-1.03l-111.3-127.52c-1.09-1.25-.96-3.14.29-4.23,1.25-1.09,3.14-.96,4.23.29l109.04,124.93,109.04-124.93c1.09-1.25,2.99-1.38,4.23-.29,1.25,1.09,1.38,2.98.29,4.23l-111.29,127.52c-.57.65-1.39,1.03-2.26,1.03Z"/><path d="M2575.81,371.01c-2.31,0-4.51-1-6.03-2.74l-111.29-127.52c-2.9-3.32-2.56-8.39.77-11.29,3.33-2.9,8.39-2.55,11.29.77l105.27,120.61,105.27-120.61c2.9-3.32,7.96-3.67,11.29-.77,1.61,1.41,2.58,3.35,2.72,5.49.14,2.13-.55,4.19-1.96,5.8l-111.29,127.52c-1.52,1.74-3.71,2.74-6.03,2.74Z"/><path class="cls-1" d="M4780.66,153.99l-68.09-68.09c-3.22-3.22-8.45-3.22-11.67,0-3.22,3.22-3.22,8.45,0,11.67l53.69,53.69h-214.63c-4.56,0-8.25,3.69-8.25,8.25s3.69,8.25,8.25,8.25h214.63l-54.23,54.23c-3.22,3.22-3.22,8.45,0,11.67,3.22,3.22,8.45,3.22,11.67,0l68.62-68.62c3.05-3.05,3.05-8,0-11.06Z"/><path class="cls-2" d="M4706.2,236.58c-2.34,0-4.54-.91-6.19-2.56-1.65-1.65-2.56-3.85-2.56-6.19s.91-4.54,2.56-6.19l53.37-53.37h-213.42c-4.83,0-8.75-3.93-8.75-8.75s3.93-8.75,8.75-8.75h213.42l-52.84-52.84c-3.41-3.41-3.41-8.96,0-12.38,3.41-3.41,8.96-3.41,12.38,0l68.08,68.09c3.24,3.24,3.24,8.52,0,11.76l-68.62,68.62c-1.65,1.65-3.85,2.56-6.19,2.56ZM4539.96,151.76c-4.27,0-7.75,3.48-7.75,7.75s3.48,7.75,7.75,7.75h215.84l-55.08,55.08c-1.46,1.46-2.27,3.41-2.27,5.48s.81,4.02,2.27,5.48,3.41,2.27,5.48,2.27,4.02-.81,5.48-2.27l68.62-68.62c2.85-2.85,2.85-7.5,0-10.35l-68.08-68.09c-3.02-3.02-7.94-3.02-10.96,0-3.02,3.02-3.02,7.94,0,10.96l54.55,54.55h-215.84Z"/><path class="cls-1" d="M4378.2,230.95l68.09,68.09c3.22,3.22,8.45,3.22,11.67,0,3.22-3.22,3.22-8.45,0-11.67l-53.69-53.69h214.63c4.56,0,8.25-3.69,8.25-8.25,0-4.56-3.69-8.25-8.25-8.25h-214.63l54.23-54.23c3.22-3.22,3.22-8.45,0-11.67-3.22-3.22-8.45-3.22-11.67,0l-68.62,68.62c-3.05,3.05-3.05,8,0,11.06Z"/><path class="cls-2" d="M4452.12,301.95c-2.34,0-4.54-.91-6.19-2.56l-68.09-68.09c-3.24-3.24-3.24-8.52,0-11.76l68.62-68.62c1.65-1.65,3.85-2.56,6.19-2.56s4.54.91,6.19,2.56c1.65,1.65,2.56,3.85,2.56,6.19s-.91,4.54-2.56,6.19l-53.37,53.37h213.42c4.83,0,8.75,3.93,8.75,8.75s-3.93,8.75-8.75,8.75h-213.42l52.84,52.84c1.65,1.65,2.56,3.85,2.56,6.19s-.91,4.54-2.56,6.19c-1.65,1.65-3.85,2.56-6.19,2.56ZM4378.55,230.6l68.09,68.09c1.46,1.46,3.41,2.27,5.48,2.27s4.02-.81,5.48-2.27c1.46-1.46,2.27-3.41,2.27-5.48s-.81-4.02-2.27-5.48l-54.55-54.55h215.84c4.27,0,7.75-3.48,7.75-7.75s-3.48-7.75-7.75-7.75h-215.84l55.08-55.08c1.46-1.46,2.27-3.41,2.27-5.48s-.81-4.02-2.27-5.48-3.41-2.27-5.48-2.27-4.02.81-5.48,2.27l-68.62,68.62c-1.38,1.38-2.14,3.22-2.14,5.17s.76,3.79,2.14,5.17Z"/><path class="cls-1" d="M3805.22,573.84c.15-.22.25-.46.38-.7.16-.29.34-.57.47-.88.13-.3.2-.62.29-.93.08-.26.18-.51.23-.79.24-1.19.24-2.41,0-3.6-.05-.27-.16-.52-.23-.79-.09-.31-.16-.63-.29-.93-.13-.31-.31-.59-.47-.88-.13-.23-.23-.47-.38-.7-.34-.5-.72-.98-1.15-1.4l-53.22-52.9c-3.6-3.58-9.46-3.58-13.06,0-3.61,3.59-3.61,9.4,0,12.98l37.46,37.23h-152.4c-42.24,0-76.6,34.15-76.6,76.13v173.63c0,5.07,4.13,9.18,9.24,9.18s9.24-4.11,9.24-9.18v-173.63c0-31.86,26.08-57.77,58.13-57.77h152.4l-37.43,37.21c-3.61,3.59-3.61,9.4,0,12.98,1.8,1.79,4.17,2.69,6.53,2.69s4.73-.9,6.53-2.69l53.2-52.88c.43-.43.81-.9,1.15-1.4Z"/><path class="cls-1" d="M361.2,578.21c.03-.12.08-.23.11-.35.1-.48.15-.97.15-1.46,0,0,0,0,0,0,0-.08-.02-.16-.02-.24-.01-.4-.04-.8-.12-1.19-.06-.32-.17-.61-.27-.91-.05-.15-.08-.31-.14-.46-.16-.4-.37-.77-.6-1.14-.03-.04-.04-.09-.07-.13-.3-.44-.64-.85-1.02-1.22l-49.78-49.48c-2.9-2.89-7.61-2.89-10.52,0-2.9,2.89-2.9,7.57,0,10.45l37.14,36.92h-76.14c-45.8,0-83.06,37.03-83.06,82.55v22.08c0,37.37-30.59,67.77-68.18,67.77H25.38l37.14-36.92c2.91-2.89,2.91-7.57,0-10.45-2.9-2.89-7.61-2.89-10.52,0l-49.83,49.52c-2.9,2.89-2.9,7.57,0,10.45l49.85,49.55c1.45,1.44,3.36,2.16,5.26,2.16s3.81-.72,5.26-2.16c2.91-2.89,2.91-7.57,0-10.45l-37.14-36.92h83.27c45.8,0,83.06-37.03,83.06-82.55v-22.08c0-37.37,30.59-67.77,68.19-67.77h76.16l-37.14,36.92c-2.9,2.89-2.9,7.57,0,10.45,1.45,1.44,3.36,2.16,5.26,2.16s3.81-.72,5.26-2.16l49.83-49.52c.63-.62,1.09-1.34,1.45-2.1.05-.1.11-.19.15-.29.14-.34.23-.69.32-1.04Z"/><path d="M2249.75,803.95c-.7,0-1.4-.24-1.97-.73l-160.68-138.36c-.66-.57-1.04-1.4-1.04-2.27s.38-1.7,1.04-2.27l160.68-138.36c1.26-1.09,3.17-.95,4.26.3,1.09,1.25.95,3.15-.31,4.23l-158.04,136.1,158.04,136.1c1.26,1.09,1.4,2.98.31,4.23-.6.68-1.44,1.04-2.28,1.04Z"/><path d="M2249.75,808.97c-1.93,0-3.79-.69-5.25-1.95l-160.68-138.36c-1.77-1.52-2.78-3.74-2.78-6.07s1.01-4.54,2.78-6.07l160.68-138.36c3.34-2.88,8.42-2.52,11.31.81,1.41,1.62,2.1,3.69,1.95,5.83-.15,2.14-1.14,4.09-2.77,5.5l-153.63,132.29,153.63,132.29c1.63,1.4,2.61,3.35,2.76,5.5.15,2.14-.54,4.21-1.95,5.83-1.53,1.75-3.74,2.75-6.06,2.75Z"/><path d="M2564.84,809.99c-.91,0-1.81-.41-2.41-1.19-1.01-1.32-.75-3.2.58-4.2l188.12-142.01-188.12-142.01c-1.33-1-1.59-2.88-.58-4.2,1.01-1.32,2.9-1.58,4.23-.57l191.29,144.4c.75.57,1.19,1.45,1.19,2.39s-.44,1.82-1.19,2.39l-191.29,144.4c-.55.41-1.19.61-1.82.61Z"/><path d="M2564.84,815c-2.49,0-4.88-1.18-6.39-3.16-1.3-1.71-1.86-3.81-1.57-5.94.29-2.13,1.39-4.01,3.11-5.31l182.82-138.01-182.82-138.01c-1.72-1.3-2.82-3.18-3.11-5.31-.29-2.13.27-4.24,1.57-5.94,2.68-3.5,7.72-4.19,11.24-1.53l191.28,144.4c2,1.51,3.19,3.9,3.19,6.39s-1.19,4.89-3.19,6.39l-191.29,144.4c-1.41,1.06-3.08,1.62-4.84,1.62Z"/><path d="M1062.44,794.12c-.74,0-1.48-.27-2.07-.81-1.22-1.13-1.27-3.03-.13-4.24l242.85-256.95c1.14-1.21,3.05-1.27,4.27-.13,1.21,1.13,1.27,3.03.13,4.24l-242.85,256.95c-.59.63-1.4.95-2.2.95Z"/><path d="M1062.44,799.13c-2.04,0-3.99-.77-5.49-2.16-1.57-1.47-2.47-3.46-2.54-5.6-.07-2.15.71-4.19,2.19-5.75l242.84-256.95c3.02-3.2,8.11-3.36,11.33-.36,1.57,1.47,2.48,3.46,2.54,5.6.07,2.15-.71,4.19-2.18,5.75l-242.85,256.95c-1.51,1.6-3.64,2.52-5.85,2.52Z"/><path d="M1062.44,794.12c-1.62,0-2.96-1.28-3.02-2.91l-2.77-88.02c-.05-1.66,1.26-3.04,2.92-3.09,1.66-.06,3.06,1.25,3.11,2.9l2.68,85.02,85.5-2.66c1.66-.06,3.06,1.25,3.11,2.9.05,1.66-1.26,3.04-2.92,3.09l-88.52,2.75s-.06,0-.1,0Z"/><path d="M1062.44,799.13c-4.36,0-7.89-3.41-8.03-7.76l-2.77-88.02c-.07-2.15.71-4.19,2.18-5.75,1.47-1.55,3.45-2.45,5.59-2.51,2.13-.08,4.17.69,5.74,2.16,1.57,1.47,2.47,3.46,2.54,5.6l2.52,80.01,80.49-2.5c2.1-.09,4.15.68,5.73,2.15,1.58,1.47,2.48,3.46,2.55,5.61.07,2.15-.71,4.19-2.18,5.75-1.47,1.55-3.46,2.45-5.59,2.51l-88.77,2.76ZM1151.06,790.38h-.03s.02,0,.03,0Z"/><path d="M1308.15,625c-1.62,0-2.96-1.28-3.02-2.91l-2.67-84.93-85.5,2.66c-1.65.05-3.06-1.25-3.11-2.9-.05-1.66,1.26-3.04,2.92-3.09l88.52-2.75c1.64-.06,3.06,1.25,3.11,2.9l2.77,87.93c.05,1.66-1.26,3.04-2.92,3.09-.03,0-.06,0-.1,0Z"/><path d="M1308.15,630.01c-4.37,0-7.89-3.41-8.03-7.76l-2.52-79.92-80.49,2.5c-2.14.08-4.18-.7-5.75-2.18-1.56-1.47-2.46-3.45-2.53-5.59-.07-2.14.71-4.19,2.18-5.75,1.47-1.55,3.46-2.45,5.59-2.51l88.52-2.75c2.13-.08,4.17.7,5.74,2.17,1.57,1.47,2.47,3.45,2.54,5.59l2.77,87.93c.07,2.15-.71,4.19-2.18,5.75-1.47,1.55-3.46,2.45-5.6,2.51h-.25ZM1216.8,534.8h0,0Z"/><path d="M549.99,790.18c-.77,0-1.55-.29-2.13-.88-1.18-1.17-1.18-3.07,0-4.24l250.81-249.28c1.18-1.17,3.09-1.17,4.27,0,1.18,1.17,1.18,3.07,0,4.24l-250.81,249.28c-.59.59-1.36.88-2.13.88Z"/><path d="M549.99,795.2c-2.14,0-4.16-.83-5.67-2.34-1.52-1.51-2.36-3.53-2.36-5.68s.84-4.16,2.37-5.68l250.81-249.28c3.12-3.11,8.21-3.11,11.34,0,1.52,1.51,2.36,3.53,2.36,5.68s-.84,4.16-2.37,5.68l-250.81,249.28c-1.51,1.51-3.53,2.34-5.67,2.34Z"/><path d="M800.8,628.92c-1.67,0-3.02-1.34-3.02-3v-85.02h-85.58c-1.67,0-3.02-1.34-3.02-3s1.35-3,3.02-3h88.6c1.67,0,3.02,1.34,3.02,3v88.02c0,1.66-1.35,3-3.02,3Z"/><path d="M800.8,633.93c-4.43,0-8.03-3.6-8.03-8.02v-80h-80.57c-4.43,0-8.03-3.6-8.03-8.02s3.6-8.02,8.03-8.02h88.6c4.43,0,8.03,3.6,8.03,8.02v88.02c0,4.42-3.6,8.02-8.03,8.02Z"/><path d="M638.41,790.28h-88.52c-1.67,0-3.02-1.34-3.02-3v-88.02c0-1.66,1.35-3,3.02-3s3.02,1.34,3.02,3v85.02h85.5c1.67,0,3.02,1.34,3.02,3s-1.35,3-3.02,3Z"/><path d="M638.41,795.29h-88.52c-4.43,0-8.03-3.6-8.03-8.02v-88.02c0-4.42,3.6-8.02,8.03-8.02s8.03,3.6,8.03,8.02v80h80.48c4.43,0,8.03,3.6,8.03,8.02s-3.6,8.02-8.03,8.02Z"/><path d="M1810.97,665.59c-.8,0-1.57-.32-2.13-.88l-43.18-42.92c-1.18-1.17-1.18-3.07,0-4.24,1.18-1.17,3.09-1.17,4.27,0l41.05,40.8,41.07-40.82c1.18-1.17,3.09-1.17,4.27,0,1.18,1.17,1.18,3.07,0,4.24l-43.2,42.94c-.57.56-1.33.88-2.13.88Z"/><path d="M1810.97,670.61c-2.14,0-4.16-.83-5.67-2.34l-43.18-42.92c-1.52-1.51-2.36-3.53-2.36-5.68s.84-4.16,2.37-5.68c3.12-3.11,8.21-3.11,11.34,0l37.51,37.28,37.53-37.31c3.13-3.11,8.21-3.11,11.34,0,1.52,1.51,2.36,3.53,2.36,5.68s-.84,4.16-2.37,5.68l-43.2,42.94c-1.51,1.51-3.53,2.34-5.67,2.34Z"/><path d="M1518.71,708.53c-.77,0-1.55-.29-2.13-.88-1.18-1.17-1.18-3.07,0-4.24l43.2-42.94c1.18-1.17,3.09-1.17,4.27,0l43.18,42.92c1.18,1.17,1.18,3.07,0,4.24-1.18,1.17-3.09,1.17-4.27,0l-41.05-40.8-41.07,40.82c-.59.59-1.36.88-2.13.88Z"/><path d="M1518.71,713.55c-2.14,0-4.16-.83-5.67-2.34-1.52-1.51-2.36-3.53-2.36-5.68s.84-4.16,2.37-5.68l43.2-42.94c3.13-3.11,8.21-3.11,11.34,0l43.18,42.92c1.52,1.51,2.36,3.53,2.36,5.68s-.84,4.16-2.36,5.68c-3.13,3.11-8.21,3.11-11.34,0l-37.51-37.28-37.53,37.31c-1.51,1.51-3.53,2.34-5.67,2.34Z"/><path d="M1810.98,789.37h-249.08c-1.67,0-3.02-1.34-3.02-3v-123.78c0-1.66,1.35-3,3.02-3s3.02,1.34,3.02,3v120.78h243.04v-58.89c0-1.66,1.35-3,3.02-3s3.02,1.34,3.02,3v61.89c0,1.66-1.35,3-3.02,3Z"/><path d="M1810.98,794.38h-249.08c-4.43,0-8.03-3.6-8.03-8.02v-123.78c0-4.42,3.6-8.02,8.03-8.02s8.03,3.6,8.03,8.02v115.76h233.01v-53.87c0-4.42,3.6-8.02,8.03-8.02s8.03,3.6,8.03,8.02v61.89c0,4.42-3.6,8.02-8.03,8.02Z"/><path d="M1810.98,665.59c-1.67,0-3.02-1.34-3.02-3v-120.78h-243.04v58.89c0,1.66-1.35,3-3.02,3s-3.02-1.34-3.02-3v-61.89c0-1.66,1.35-3,3.02-3h249.08c1.67,0,3.02,1.34,3.02,3v123.78c0,1.66-1.35,3-3.02,3Z"/><path d="M1810.98,670.61c-4.43,0-8.03-3.6-8.03-8.02v-115.76h-233.01v53.87c0,4.42-3.6,8.02-8.03,8.02s-8.03-3.6-8.03-8.02v-61.89c0-4.42,3.6-8.02,8.03-8.02h249.08c4.43,0,8.03,3.6,8.03,8.02v123.78c0,4.42-3.6,8.02-8.03,8.02Z"/><path d="M3241.48,619.39c-.77,0-1.54-.29-2.13-.88-1.18-1.17-1.18-3.07,0-4.24l57.86-57.51-57.89-57.54c-1.18-1.17-1.18-3.07,0-4.24,1.18-1.17,3.09-1.17,4.27,0l60.03,59.66c1.18,1.17,1.18,3.07,0,4.24l-60,59.63c-.59.59-1.36.88-2.13.88Z"/><path d="M3241.48,624.41c-2.14,0-4.15-.83-5.67-2.34-1.53-1.52-2.37-3.53-2.37-5.68s.84-4.16,2.36-5.68l54.28-53.95-54.31-53.98c-1.52-1.51-2.37-3.53-2.37-5.68s.84-4.16,2.37-5.68c3.12-3.11,8.21-3.11,11.34,0l60.03,59.66c1.52,1.51,2.37,3.53,2.37,5.68s-.84,4.16-2.37,5.68l-60,59.63c-1.52,1.51-3.53,2.34-5.67,2.34Z"/><path d="M3028.5,831.08c-1.67,0-3.02-1.34-3.02-3v-195.81c0-43.29,35.43-78.5,78.99-78.5h197.01c1.67,0,3.02,1.34,3.02,3s-1.35,3-3.02,3h-197.01c-40.22,0-72.95,32.53-72.95,72.5v195.81c0,1.66-1.35,3-3.02,3Z"/><path d="M3028.5,836.09c-4.43,0-8.03-3.6-8.03-8.02v-195.81c0-46.05,37.68-83.52,84-83.52h197.01c4.43,0,8.03,3.6,8.03,8.02s-3.6,8.02-8.03,8.02h-197.01c-37.46,0-67.93,30.28-67.93,67.49v195.81c0,4.42-3.6,8.02-8.03,8.02Z"/><path class="cls-1" d="M4714.02,858.13l66.57-66.16c3.15-3.13,3.15-8.21,0-11.34-3.15-3.13-8.26-3.13-11.41,0l-52.49,52.17v-208.56c0-4.43-3.61-8.02-8.07-8.02s-8.07,3.59-8.07,8.02v208.56s-53.02-52.69-53.02-52.69c-3.15-3.13-8.26-3.13-11.41,0-3.15,3.13-3.15,8.21,0,11.34l67.09,66.68c2.98,2.97,7.82,2.97,10.81,0Z"/><path class="cls-2" d="M4708.61,860.85c-2.09,0-4.17-.79-5.76-2.37l-67.09-66.68c-3.34-3.32-3.34-8.73,0-12.05,1.62-1.61,3.77-2.5,6.06-2.5s4.44.89,6.06,2.5l52.16,51.84v-207.35c0-4.7,3.84-8.52,8.57-8.52s8.57,3.82,8.57,8.52v207.35l51.64-51.32c1.62-1.61,3.77-2.49,6.06-2.49,2.29,0,4.44.89,6.06,2.49,3.34,3.32,3.34,8.72,0,12.05l-66.56,66.16c-1.59,1.58-3.67,2.37-5.76,2.37ZM4641.82,778.26c-2.02,0-3.92.78-5.35,2.2-2.95,2.93-2.95,7.7,0,10.63l67.09,66.68c1.35,1.34,3.14,2.08,5.05,2.08s3.7-.74,5.05-2.08l66.56-66.16c2.95-2.93,2.95-7.7,0-10.63-1.43-1.42-3.33-2.2-5.35-2.2-2.02,0-3.92.78-5.35,2.2l-53.35,53.03v-209.77c0-4.15-3.39-7.52-7.56-7.52s-7.56,3.37-7.56,7.52v209.77l-53.87-53.55c-1.43-1.42-3.33-2.2-5.35-2.2Z"/><path class="cls-1" d="M4638.77,467.05l-66.57,66.16c-3.15,3.13-3.15,8.21,0,11.34,3.15,3.13,8.26,3.13,11.41,0l52.49-52.17v208.56c0,4.43,3.61,8.02,8.07,8.02s8.07-3.59,8.07-8.02v-208.56l53.02,52.69c3.15,3.13,8.26,3.13,11.41,0,3.15-3.13,3.15-8.21,0-11.34l-67.09-66.68c-2.98-2.97-7.82-2.97-10.81,0Z"/><path class="cls-2" d="M4644.17,709.45c-4.73,0-8.57-3.82-8.57-8.52v-207.35l-51.64,51.32c-3.34,3.32-8.78,3.32-12.12,0-3.34-3.32-3.34-8.73,0-12.05l66.56-66.16c1.54-1.53,3.58-2.37,5.76-2.37s4.22.84,5.76,2.37l67.09,66.68c3.34,3.32,3.34,8.72,0,12.05-3.34,3.32-8.78,3.32-12.12,0l-52.16-51.84v207.35c0,4.7-3.84,8.52-8.57,8.52ZM4636.61,491.17v209.77c0,4.15,3.39,7.52,7.56,7.52s7.56-3.37,7.56-7.52v-209.77l53.87,53.55c2.95,2.93,7.75,2.93,10.7,0,2.95-2.93,2.95-7.7,0-10.63l-67.09-66.68c-1.35-1.34-3.14-2.08-5.05-2.08s-3.7.74-5.05,2.08l-66.57,66.16c-2.95,2.93-2.95,7.7,0,10.63,2.95,2.93,7.75,2.93,10.7,0l53.35-53.03Z"/><path class="cls-1" d="M4234.69,529.27l-62.62-62.24c-2.68-2.66-7.03-2.66-9.71,0l-64.69,64.29h0c-.65,9.95,8.54,12.62,13.17,8.02l48.86-48.56v114.98h0s0,0,0,0h0s0,0,0,0l18.74,18.63c2.68,2.66,2.68,6.99,0,9.65l-46.25,45.97c-2.68,2.66-2.68,6.99,0,9.65l47.87,47.58c2.68,2.66,2.68,6.99,0,9.65l-48.68,48.39c-2.68,2.66-2.68,6.99,0,9.65l53.54,53.21c2.68,2.66,7.03,2.66,9.71,0h0c2.68-2.66,2.68-6.99,0-9.65l-43.83-43.56c-2.68-2.66-2.68-6.99,0-9.65l48.68-48.39c2.68-2.66,2.68-6.99,0-9.65l-47.87-47.58c-2.68-2.66-2.68-6.99,0-9.65l46.25-45.97c2.68-2.67,2.68-6.99,0-9.65l-21.13-21c-1.29-1.28-2.01-3.02-2.01-4.83v-107.78s51.9,51.58,51.9,51.58h0c10.01.64,12.7-8.49,8.07-13.09Z"/><path class="cls-1" d="M4288.31,1695.06c3.02,0,5.45,2.4,5.45,5.35s-2.44,5.33-5.45,5.33h-349.05l118.75,116.06c2.13,2.08,2.13,5.45,0,7.55-2.15,2.08-5.6,2.08-7.73,0l-128.05-125.15c-2.17-2.1-2.17-5.49,0-7.59l128.05-125.15c2.13-2.08,5.58-2.08,7.73,0,2.13,2.08,2.13,5.47,0,7.55l-118.75,116.04h349.05Z"/><path class="cls-1" d="M3783.76,1545.51c0-2.95,2.46-5.33,5.47-5.33s5.45,2.38,5.45,5.33v221.27c0,2.97-2.44,5.35-5.45,5.35h-349.05l81.24,79.4c2.13,2.08,2.13,5.45,0,7.55-2.13,2.08-5.6,2.08-7.73,0l-90.53-88.48c-2.17-2.1-2.17-5.49,0-7.61l90.53-88.48c2.13-2.08,5.6-2.08,7.73,0,2.13,2.08,2.13,5.47,0,7.55l-81.24,79.4h343.58v-215.93Z"/><path class="cls-1" d="M2997.38,1550.87c-3.02,0-5.47-2.38-5.47-5.35s2.46-5.33,5.47-5.33h158.46c65.28,0,118.67,52.18,118.67,115.98s-53.38,115.96-118.67,115.96h-235.83l81.23,79.39c2.13,2.08,2.13,5.47,0,7.55-2.13,2.08-5.6,2.08-7.73,0l-90.53-88.48c-2.17-2.1-2.19-5.49,0-7.61l90.53-88.48c2.13-2.08,5.6-2.08,7.73,0,2.13,2.1,2.13,5.47,0,7.55l-81.23,79.39h235.83c59.25,0,107.74-47.39,107.74-105.28s-48.49-105.3-107.74-105.3h-158.46Z"/><path class="cls-1" d="M2442.91,1873.65c2.15,2.08,2.15,5.45,0,7.55-2.13,2.08-5.6,2.08-7.73,0l-45.24-44.24c-2.19-2.1-2.17-5.49,0-7.61l45.24-44.22c2.13-2.08,5.6-2.08,7.73,0,2.15,2.1,2.15,5.47,0,7.55l-35.95,35.13h281.11c34.34,0,62.45-27.46,62.45-61.02s-28.12-61.04-62.45-61.04h-226.38c-40.37,0-73.38-32.27-73.38-71.72s33.01-71.72,73.38-71.72h281.11l-35.95-35.13c-2.13-2.1-2.13-5.47,0-7.57,2.13-2.08,5.6-2.08,7.73,0l45.24,44.24c2.17,2.1,2.19,5.49,0,7.59l-45.24,44.24c-2.13,2.08-5.6,2.08-7.73,0-2.13-2.08-2.13-5.47,0-7.55l35.95-35.13h-281.11c-34.34,0-62.45,27.48-62.45,61.04s28.12,61.02,62.45,61.02h226.38c40.37,0,73.38,32.27,73.38,71.74s-33.01,71.72-73.38,71.72h-281.11l35.95,35.13Z"/><path class="cls-1" d="M1258.27,1696.63c2.13,2.08,2.13,5.47,0,7.55-2.13,2.1-5.6,2.1-7.73,0l-35.95-35.13v186.99c0,14.72-12.27,26.71-27.33,26.71h-227.94c-15.06,0-27.33-11.99-27.33-26.71v-67.14c0-2.95,2.44-5.33,5.45-5.33s5.47,2.38,5.47,5.33v67.14c0,8.82,7.38,16.03,16.4,16.03h227.94c9.03,0,16.4-7.21,16.4-16.03v-186.99l-35.95,35.13c-2.15,2.1-5.6,2.1-7.75,0-2.13-2.08-2.13-5.47,0-7.55l45.27-44.22c2.15-2.12,5.62-2.12,7.77,0l45.27,44.22ZM941.36,1748.42c-2.13,2.1-5.62,2.12-7.79-.02l-45.24-44.22c-2.15-2.08-2.15-5.47,0-7.55,2.13-2.08,5.58-2.08,7.73,0l35.95,35.13v-186.99c0-14.72,12.27-26.71,27.33-26.71h227.94c15.06,0,27.33,11.99,27.33,26.71v67.14c0,2.95-2.46,5.35-5.47,5.35s-5.45-2.4-5.45-5.35v-67.14c0-8.82-7.38-16.03-16.4-16.03h-227.94c-9.03,0-16.4,7.21-16.4,16.03v186.99l35.95-35.13c2.13-2.08,5.6-2.08,7.73,0,2.13,2.08,2.13,5.47,0,7.55l-45.24,44.24Z"/><path class="cls-1" d="M1914.36,1801.32c0-3.36,2.78-6.08,6.22-6.08s6.24,2.72,6.24,6.08v26.11c0,10.04,8.41,18.26,18.71,18.26h259.93c10.3,0,18.71-8.22,18.71-18.26v-162.79l-40.99,40.06c-2.45,2.37-6.38,2.37-8.83,0-2.43-2.37-2.43-6.24,0-8.61l51.62-50.43c2.45-2.44,6.41-2.42,8.88,0l51.59,50.43c2.43,2.37,2.43,6.24,0,8.61s-6.38,2.37-8.81,0l-40.99-40.06v162.79c0,16.79-13.99,30.46-31.17,30.46h-259.93c-17.17,0-31.17-13.68-31.17-30.46v-26.11ZM1864.56,1704.7c-2.45-2.37-2.45-6.24,0-8.61,2.43-2.37,6.36-2.37,8.81,0l40.99,40.06v-162.77c0-16.79,13.99-30.46,31.17-30.46h259.93c17.17,0,31.17,13.68,31.17,30.46v26.09c0,3.36-2.8,6.08-6.24,6.08s-6.22-2.72-6.22-6.08v-26.09c0-10.06-8.41-18.28-18.71-18.28h-259.93c-10.3,0-18.71,8.22-18.71,18.28v162.77l40.99-40.06c2.43-2.37,6.38-2.37,8.81,0,2.43,2.37,2.43,6.24,0,8.61l-51.59,50.45c-2.47,2.39-6.41,2.42-8.88,0l-51.59-50.45Z"/><path class="cls-1" d="M145.2,1881.16c-2.13,2.12-5.62,2.14-7.79,0l-45.24-44.22c-2.13-2.08-2.13-5.47,0-7.55,2.13-2.1,5.6-2.1,7.73,0l35.95,35.13v-274.75c0-33.56-28.12-61.04-62.45-61.04s-62.43,27.48-62.43,61.04v243.39c0,2.95-2.46,5.33-5.47,5.33S0,1836.11,0,1833.17v-243.39C0,1550.32,33.01,1518.05,73.38,1518.05s73.38,32.27,73.38,71.72v274.75l35.95-35.13c2.15-2.1,5.6-2.1,7.75,0,2.13,2.08,2.13,5.47,0,7.55l-45.27,44.22Z"/><path class="cls-1" d="M514.73,1881.16c-2.13,2.12-5.62,2.14-7.79,0l-45.24-44.22c-2.13-2.1-2.13-5.47,0-7.55,2.13-2.1,5.6-2.1,7.73,0l35.95,35.13v-274.75c0-39.45,33.01-71.72,73.38-71.72s73.38,32.27,73.38,71.72v243.39c0,2.95-2.44,5.33-5.45,5.33s-5.47-2.38-5.47-5.33v-243.39c0-33.56-28.12-61.04-62.45-61.04s-62.45,27.48-62.45,61.04v274.75l35.95-35.13c2.13-2.1,5.6-2.1,7.73,0,2.15,2.08,2.15,5.45,0,7.55l-45.24,44.22Z"/><path d="M4752.73,1700.34c-4.51-4.61-8.84-9.2-13.35-13.62-19.12-18.7-38.3-37.34-57.45-56-17.94-17.48-35.9-34.95-53.79-52.48-2.72-2.67-5.04-5.72-7.66-8.49-3.3-3.48-1.08-7.49,2.64-11.61,2.43-2.69,4.73-2.86,8.47.26,6.84,5.71,13.45,11.71,19.82,17.92,23.71,23.1,47.27,46.35,70.93,69.5,14.86,14.54,29.81,28.99,44.7,43.49,2.43,2.37,4.79,4.81,7.15,7.24,3.26,3.36,3.37,5.06-.12,8.5-7.84,7.74-15.85,15.32-23.76,23-21.61,21.01-43.16,42.07-64.81,63.04-16.77,16.24-33.66,32.36-50.5,48.52-.61.59-1.28,1.11-1.95,1.64-5.4,4.25-6.66,4.43-9.84,1.41-4.97-4.72-5.64-8.48-1.44-13.1,5.69-6.28,11.72-12.27,17.79-18.21,31.1-30.44,62.24-60.83,93.38-91.23,5.62-5.48,11.29-10.92,16.91-16.4.89-.87,1.61-1.89,2.87-3.39Z"/><path d="M4607.13,1700.66c-4.49-4.56-8.55-8.83-12.76-12.95-36.99-36.23-74.01-72.44-111-108.67-2.73-2.67-5.44-5.39-7.8-8.37-3.85-4.85-2.36-11.3,3.29-13.8,1.44-.64,3.96-.22,5.38.66,3.23,2,6.33,4.34,9.06,6.97,20.29,19.6,40.5,39.29,60.69,58.99,21.86,21.33,43.68,42.69,65.48,64.07,3.03,2.97,5.87,6.12,8.77,9.21,3.6,3.83,3.8,4.03.25,7.65-6.97,7.11-14.18,14-21.31,20.96-19.11,18.69-38.19,37.41-57.36,56.03-19.78,19.22-39.66,38.35-59.51,57.51-.91.88-1.91,1.69-2.91,2.49-4.57,3.68-7.94,3.54-11.71-.47-3.4-3.62-3.42-7.2.47-11.13,12.38-12.53,24.8-25.01,37.36-37.36,25.12-24.71,50.34-49.32,75.52-73.98,5.74-5.62,11.46-11.27,18.1-17.81Z"/><path d="M1446.44,1560.35c1.96,2.14,3.81,4.39,5.89,6.41,30.16,29.28,60.39,58.49,90.51,87.8,33.46,32.57,66.83,65.23,100.23,97.87,22.16,21.66,44.29,43.34,66.44,65.01,6.82,6.68,13.73,13.27,20.44,20.05,2.82,2.85,5.25,6.07,7.81,9.16,1.65,1.99,1.77,4.01.46,6.39-4.18,7.57-7.66,8.39-14.44,2.28-8.99-8.12-17.66-16.57-26.33-25.01-25.11-24.43-50.18-48.89-75.21-73.39-32.61-31.92-65.13-63.94-97.77-95.84-27.03-26.41-54.17-52.7-81.26-79.05-3.13-3.05-6.27-6.1-10.6-10.31-.2,9.89-.43,18.16-.52,26.42-.16,15.12-.24,30.23-.36,45.35,0,.63-.04,1.26-.07,1.89-.43,7.91-1.88,9.12-9.87,8.25-5.32-.58-6.69-1.89-6.72-7.24-.17-32.55-.31-65.09-.38-97.64-.01-6.58.79-7.22,7.35-7.23,31.16-.02,62.31-.05,93.47-.07,1.5,0,3.01-.02,4.51.03,7.26.22,11.31,5.71,8.84,12.34-.49,1.32-2.16,2.75-3.56,3.11-3.29.85-6.73,1.45-10.12,1.49-20.84.21-41.68.23-62.52.31-1.87,0-3.73,0-5.6,0-.21.53-.42,1.07-.63,1.6Z"/><path d="M1723.06,1558.95c-3.2,0-5.46.01-7.71,0-21.04-.16-42.09-.32-63.13-.49-1.29-.01-2.57-.12-3.86-.21-7.27-.51-10.31-4.61-8.41-11.41.87-3.13,2.74-5.17,6.33-5.21,4.08-.04,8.16-.17,12.24-.17,29.64-.02,59.28-.02,88.92,0,1.88,0,3.76.24,5.93.39.25,1.52.62,2.7.62,3.89-.03,32.54-.09,65.07-.17,97.61-.03,9.81-.6,10.34-10.52,10.14-1.46-.03-2.92-.25-4.96-.43-.4-3-1.05-5.84-1.1-8.69-.33-21.4-.55-42.81-.79-64.22-.03-2.23,0-4.46,0-7.37-1.57.6-2.47.68-2.97,1.16-18.8,18.11-37.58,36.23-56.31,54.4-19.04,18.48-37.99,37.03-57.03,55.51-2.58,2.51-5.31,4.9-8.13,7.16-3.91,3.14-6.48,3.08-9.57.1-4.26-4.11-4.94-7.89-2.02-11.66.64-.83,1.46-1.53,2.21-2.27,29.6-28.91,59.21-57.82,88.82-86.73,9.72-9.49,19.45-18.97,29.15-28.47.7-.69,1.25-1.52,2.47-3.03Z"/><path d="M1569.76,1728.57c-.94,5.3-3.3,8.45-6.26,11.31-12.08,11.63-24.18,23.26-36.19,34.96-24.03,23.4-47.96,46.9-72.04,70.25-4.25,4.12-8.84,7.95-13.54,11.57-4.09,3.15-5.14,3-7.79.63-4.09-3.66-5.23-6.95-3.21-10.46,1.14-1.98,2.66-3.82,4.3-5.45,13.83-13.78,27.65-27.57,41.61-41.22,24.42-23.9,48.93-47.72,73.44-71.54,2.12-2.06,4.57-3.79,6.81-5.74,2.68-2.33,5.86-2.24,8.27-.4,2.17,1.65,3.42,4.46,4.6,6.09Z"/><path class="cls-1" d="M4043.39,1288.02c3.2,0,5.82,2.6,5.82,5.82s-2.61,5.84-5.82,5.84h-96.2c-3.2,0-5.82-2.6-5.82-5.84v-96.67c0-3.22,2.61-5.82,5.82-5.82s5.79,2.6,5.79,5.82v82.6l134.41-135.05c2.26-2.29,5.93-2.29,8.21,0l92.1,92.55,140.21-140.9c2.26-2.27,5.95-2.27,8.21,0,2.26,2.27,2.26,5.98,0,8.25l-144.31,145.02c-2.26,2.27-5.95,2.27-8.21,0l-92.1-92.55-130.31,130.93h82.2Z"/><path class="cls-1" d="M4641.34,1072.51c-2.33,2.34-6.11,2.34-8.47,0-2.33-2.34-2.33-6.17,0-8.51l70.16-70.5c2.38-2.39,6.16-2.37,8.53.02l70.11,70.48c2.35,2.34,2.35,6.16,0,8.51-2.33,2.34-6.11,2.34-8.47,0l-59.95-60.24v184.91c0,3.32-2.67,6.03-5.98,6.03h-192.47v193.42c0,3.32-2.69,6.01-6,6.01s-5.98-2.68-5.98-6.01v-199.45c0-3.32,2.67-6.03,5.98-6.03h192.47v-178.88l-59.95,60.24Z"/><path class="cls-1" d="M2308.37,1146.53c.91,3.13-.84,6.41-3.96,7.35-3.11.92-6.38-.85-7.31-3.98-20.63-69.63-84.48-118.18-157.84-118.18-90.92,0-164.64,74.08-164.64,165.45s73.72,165.45,164.64,165.45c73.36,0,137.21-48.54,157.84-118.18.93-3.13,4.2-4.89,7.31-3.98,3.11.94,4.87,4.22,3.96,7.35-22.1,74.55-90.59,126.62-169.11,126.62-97.42,0-176.4-79.37-176.4-177.27s78.99-177.27,176.4-177.27c78.52,0,147.03,52.1,169.11,126.62h0ZM2358.52,1191.26c3.25,0,5.87,2.66,5.87,5.92s-2.62,5.92-5.87,5.92h-229.42l58.87,59.13c2.29,2.32,2.29,6.05,0,8.36-2.29,2.32-6.02,2.32-8.31,0l-68.87-69.19c-2.33-2.35-2.36-6.1,0-8.42l68.87-69.23c2.29-2.3,6.02-2.3,8.31,0,2.29,2.32,2.29,6.05,0,8.38l-58.87,59.13h229.42Z"/><path d="M3293.72,1310.7c-18.43-.26-35.54.48-52.57-2.03-28.93-4.25-55.15-14.64-77.03-34.51-9.42-8.56-18.16-17.9-27.06-27.03-9.94-10.19-19.65-20.56-32.06-27.94-10.78-6.42-22.41-10.15-34.69-11.64-8.69-1.05-17.49-1.46-26.25-1.58-19.64-.25-39.29-.13-58.94-.19-2.92,0-5.86-.06-8.77-.33-2.82-.27-4.58-1.88-4.82-4.86-.08-1.05-.22-2.09-.21-3.14.05-6.82,1.67-8.62,8.4-8.95,3.75-.19,7.52-.13,11.28-.14,22.36-.03,44.73.13,67.09-.09,25.63-.26,47.48-10.07,65.63-27.97,10.87-10.72,20.76-22.47,31.71-33.1,15.31-14.85,33.01-26.15,53.1-33.54,14-5.16,28.32-8.47,43.29-8.8,11.47-.25,22.94-.81,34.41-1.27,1.77-.07,3.54-.3,6.74-.58-2.53-2.97-4.12-5.04-5.93-6.9-7.44-7.66-15.06-15.15-22.39-22.92-4.35-4.62-4.01-9.6.3-13.19,1.76-1.47,3.74-2.29,5.75-1.05,3.68,2.28,7.64,4.38,10.68,7.38,13.23,13.1,26.26,26.41,39.19,39.82,5.78,5.99,5.78,6.35-.24,12.44-14.12,14.28-28.44,28.36-42.69,42.52-.74.74-1.57,1.38-2.38,2.04-4.41,3.6-6.67,3.98-9.36,1.6-4.35-3.85-5.18-8.39-1.59-12.72,5.07-6.11,10.52-11.92,15.94-17.73,3.96-4.24,8.14-8.27,12.95-13.14-2.56-.25-4.13-.6-5.69-.53-15.02.7-30.13.67-45.04,2.39-26.65,3.08-50.07,14.23-69.93,32.27-9.89,8.98-18.91,18.95-28.07,28.71-12.15,12.94-25.74,23.87-41.66,31.78-.67.33-1.2.97-2.26,1.86,23.5,9.56,39.6,27.44,55.66,45.32,14.58,16.23,31.16,29.71,51.23,38.49,11.51,5.03,23.53,8.06,35.94,10.18,13.33,2.28,26.65,1.56,39.98,1.83,3.03.06,6.05,0,10.32,0-2.05-2.23-3.39-3.68-4.74-5.13-8.24-8.9-16.55-17.74-24.71-26.71-4.89-5.36-2.92-9.17,2.99-12.33,3.1-1.66,5.7-.68,8,1.45,5.37,4.98,10.79,9.92,15.94,15.13,10,10.1,19.84,20.36,29.75,30.56.58.6,1.25,1.12,1.82,1.73,3.38,3.66,3.41,4.43-.31,8.26-7,7.2-14.02,14.39-21.16,21.45-7.29,7.21-14.74,14.26-22.13,21.37-1.21,1.16-2.44,2.3-3.71,3.38-5.16,4.4-6.6,4.46-10.56.54-3.68-3.64-3.96-7.45-.2-11.61,7.73-8.53,15.71-16.85,23.6-25.24,1.54-1.64,3.12-3.23,5.45-5.63Z"/><path d="M3799.04,1187.48c-1.8-2.2-2.94-3.85-4.33-5.25-14.45-14.54-28.94-29.04-43.41-43.56-1.03-1.04-2.02-2.13-2.97-3.25-4.04-4.74-3.43-10.32,1.71-13.86,1.04-.72,2.94-1.19,3.97-.72,2.78,1.28,5.72,2.71,7.88,4.82,14.21,13.92,28.25,28.03,42.32,42.1,6.96,6.96,13.87,13.95,20.79,20.95,1.62,1.64,3.28,3.26,4.71,5.06,2.72,3.4,2.56,4.27-.57,7.37-18.59,18.42-37.16,36.87-55.76,55.28-4.91,4.86-9.85,9.7-14.92,14.39-3.55,3.28-5.23,3.39-8.27,1.28-4.54-3.16-5.4-5.35-3.25-9.96,1.13-2.41,2.68-4.75,4.51-6.68,10.82-11.37,21.86-22.54,32.65-33.94,4.87-5.15,9.34-10.68,13.81-15.82.63.18-.07-.2-.77-.2-27.8.04-55.59.18-83.39.13-10.15-.02-19.93,1.78-29.52,4.92-12.14,3.97-22.22,11.32-31.74,19.61-10.67,9.29-18.54,20.97-27.38,31.84-6.6,8.12-13.41,16.09-20.5,23.79-14.61,15.86-32.66,25.85-53.65,30.37-4.27.92-8.69,1.44-13.05,1.58-18.58.58-37.18,1.52-55.72-.89-4.79-.62-5.95-2.31-5.16-7.21,1.12-6.91,2.28-8.1,9.24-8.22,10.86-.2,21.74.08,32.59-.29,10.63-.36,21.38-.48,31.82-2.24,6.79-1.14,13.42-4.48,19.61-7.8,15.22-8.18,26.37-21.04,37.07-34.27,8.03-9.92,15.86-20.01,24.06-29.8,9.51-11.35,21.14-20.14,34.09-27.2,1.21-.66,2.38-1.4,4.1-2.43-1.65-1.19-2.72-2.13-3.94-2.82-19.8-11.34-34.84-27.75-48.78-45.49-8.91-11.34-17.99-22.65-28.04-32.96-13.96-14.33-31.43-21.74-51.56-22.25-16.5-.42-33.01-.75-49.51-1.13-1.04-.02-2.09-.08-3.13-.19-2.82-.29-6.22.39-7.19-3.49-.94-3.77-.97-7.7,1.56-10.81.98-1.2,3.33-1.64,5.09-1.73,6.67-.35,13.37-.65,20.05-.54,13.99.23,28.05-.04,41.94,1.32,15.49,1.52,29.82,7.31,42.66,16.35,12.64,8.89,22.48,20.54,32.04,32.55,9.12,11.45,18.27,22.93,28.22,33.64,13.76,14.81,30.94,23.96,50.87,27.58,2.86.52,5.82.69,8.73.7,29.26.05,58.52.03,87.77.01.4,0,.8-.18,2.61-.62Z"/><path d="M1106.6,1318.67c-4.63-.25-9.31-.44-13.99-.75-28.01-1.84-52.71-11.75-73.58-30.77-17.93-16.34-29.8-36.32-36.03-59.9-5.33-20.16-5.19-40.09-.18-60.24,6.91-27.78,22.03-50.14,44.55-67.18,15.48-11.71,32.98-19.71,52.5-21.98,9.93-1.15,19.96-1.82,29.95-1.89,30.93-.2,61.86-.03,92.8.03,7.67.02,11.88,6.34,8.57,13.23-.75,1.57-2.98,2.93-4.77,3.38-2.58.64-5.39.46-8.1.47-32.61.07-65.21.06-97.82.2-13.9.06-27.61,2.02-40.37,7.6-33.01,14.43-54.43,39.04-61.59,74.82-6.7,33.46.72,63.78,23.17,89.76,13.58,15.72,30.53,26.45,50.57,32.08,10.93,3.07,22.08,3.53,34.26,3.21-1.14-1.72-1.71-2.92-2.58-3.85-7.73-8.24-15.56-16.39-23.28-24.65-6.64-7.11-6.58-8.46.09-15.51.56-.59,1.12-1.18,2.26-2.39,2.75,1.71,5.94,2.97,8.17,5.2,15.56,15.5,30.95,31.16,46.31,46.86,3.22,3.29,2.99,4.18-.03,7.16-9.22,9.12-18.33,18.37-27.61,27.43-7.03,6.87-14.04,13.79-21.49,20.19-4.5,3.87-9.17,1.91-11.11-3.76-1.22-3.55-.55-6.68,1.92-9.33,6.57-7.04,13.27-13.96,19.87-20.97,2.51-2.67,4.88-5.46,7.53-8.44Z"/><path d="M1270.94,1075.84c3.57,0,6.88-.17,10.17.03,39.25,2.3,71.32,18.19,95.05,50.3,11.45,15.49,18.72,32.72,21.62,51.6,1.36,8.84,1.1,18.03.77,27.03-1.03,28.23-12.16,52.21-30.93,72.99-8.22,9.1-17.21,17.27-27.8,23.26-12.54,7.09-25.69,13.12-40.2,14.95-8.05,1.02-16.19,1.89-24.29,1.92-32.81.11-65.62-.14-98.43-.26-.84,0-1.68,0-2.51-.07-7.95-.69-10.1-4.05-7.74-11.78.76-2.47,2.04-4.12,4.7-4.31,4.16-.29,8.33-.74,12.49-.74,31.56-.06,63.12.02,94.68-.02,34.82-.04,62.35-14.79,83.19-42.41,16.14-21.39,21.99-45.8,19.51-72.32-2.87-30.68-17.71-54.49-41.84-72.88-19.26-14.68-41.3-20.25-65.1-19.97-.62,0-1.24.15-1.84.29-.14.03-.22.33-.73,1.14,1.15,1.28,2.41,2.8,3.78,4.2,6.56,6.76,13.2,13.45,19.71,20.26,1.87,1.96,3.56,4.13,5.09,6.37,2.92,4.26,2.58,6.92-1.06,10.58-2.86,2.87-6.58,3.21-10.16.45-3.14-2.42-6.1-5.12-8.87-7.96-12.88-13.17-25.72-26.39-38.46-39.7-4.04-4.22-3.76-5.31.2-9.32,10.44-10.58,20.74-21.29,31.21-31.84,4.86-4.9,9.9-9.64,15.01-14.27,3.42-3.1,8.17-2.82,11.27.29,3.05,3.06,3.57,7.08.51,10.76-4.27,5.14-9.09,9.81-13.64,14.71-4.94,5.32-9.83,10.69-15.37,16.72Z"/><path d="M1553.22,1084.25c1.91-1.79,3.93-3.48,5.7-5.39,14.4-15.5,31.02-28.14,49.92-37.41,15.75-7.73,32.33-13.23,49.83-15.79,24.93-3.66,49.63-2.96,73.81,4.26,52.47,15.67,90.04,48.65,112.14,99.13,10.43,23.82,15.26,48.81,13.91,74.78-.58,11.06-2.73,22.03-4.25,33.03-.23,1.64-.9,3.23-1.49,4.8-2.37,6.38-6.72,8.2-12.83,5.37-3.05-1.41-4.28-3.85-3.82-7.17.54-3.94.79-7.95,1.74-11.79,2.78-11.29,3.69-22.73,3.47-34.31-.46-24.76-6.67-48.04-17.97-69.95-14.56-28.23-36.42-49.48-63.8-64.81-14.01-7.84-29.31-12.8-45.25-15.63-20.2-3.59-40.41-3.59-60.41.38-16.81,3.34-32.83,9.31-47.58,18.48-13.58,8.44-26.11,18.09-36.95,29.89-1.36,1.48-2.64,3.05-4.65,5.38,2.37.23,3.69.46,5.01.47,9.61.08,19.23.1,28.84.17,1.67.01,3.36.03,5,.27,6.88,1.01,8.92,4.06,7.42,10.92-.99,4.5-2.55,5.96-7.34,6.01-13.17.14-26.33.14-39.5.17-7.31.01-14.63.02-21.94-.07-5.84-.07-6.92-.87-6.9-6.37.05-21,.31-42,.49-62.99.03-3.24,1.04-5.54,4.6-6.49,3.69-.98,7.07-.75,10.09,1.46.79.58.98,2.27,1.05,3.47.25,4.4.42,8.8.45,13.2.07,8.55.02,17.11.02,25.66.4.29.79.59,1.19.88Z"/><path d="M1805.44,1295.79c-11.27,0-22.53.03-33.8-.03-1.86,0-3.79-.11-5.58-.58-6.49-1.72-8.76-8.42-4.51-13.73.98-1.22,3.12-1.97,4.79-2.08,5.42-.34,10.86-.34,16.29-.36,16.09-.04,32.18-.03,48.27,0,1.42,0,2.83.32,4.64.54.26,1.76.69,3.36.69,4.96,0,20.16-.01,40.32-.15,60.48-.06,8.82-4.46,11.93-12.97,9.53-3.01-.85-3.57-3.28-3.63-5.9-.19-7.35-.32-14.69-.41-22.04-.06-5.41-.01-10.82-.01-16.5-.83.21-1.56.17-1.87.52-10.85,12.04-23.12,22.46-36.62,31.28-15.62,10.22-32.37,18.11-50.56,22.77-15.25,3.91-30.64,6.29-46.42,6.21-15.99-.09-31.5-2.89-46.81-7.32-12.67-3.67-24.79-8.53-36.24-15.12-24.57-14.14-44.37-33.29-59.78-57.12-10.22-15.79-17.39-32.96-22.27-51.03-4.4-16.29-5.75-32.99-5.22-49.89.35-11.16,1.44-22.16,4.3-32.96.38-1.42.71-2.85,1.18-4.24,2.73-7.87,4.52-8.56,12.59-5.99,3.26,1.04,4.44,2.83,4.03,5.97-.43,3.32-.72,6.69-1.51,9.94-4.33,17.8-4.84,35.94-2.32,53.83,4.54,32.23,16.72,61.29,39.05,85.56,17.92,19.47,39.21,33.79,64.1,42.44,24.45,8.49,49.56,10.98,75.26,6.95,17.02-2.67,33.24-7.83,48.32-16.04,13.8-7.51,26.24-17.12,37.57-28.08,3.53-3.41,6.97-6.92,10.46-10.38-.28-.53-.56-1.06-.83-1.6Z"/><path d="M2819.25,1300.08c-86.7,0-172.18.03-257.66-.06-7.73,0-15.48-.63-23.18-1.37-5.13-.49-6.37-2.27-6.03-7.04.1-1.4.5-2.78.81-4.16,1.34-6.02,1.87-6.46,8.37-6.49,22.76-.12,45.52-.26,68.28-.3,63.04-.12,126.07-.2,189.11-.29,6.42,0,12.83,0,20.63,0-2.06-2.66-3.22-4.65-4.86-6.2-16.8-15.8-33.69-31.52-50.52-47.29-1.77-1.66-3.44-3.43-5.03-5.24-5.63-6.43-5.5-9.67.52-15.04,4.13-3.69,7.42-3.29,13.47,2.04,6.2,5.47,12.29,11.05,18.32,16.69,18.96,17.75,37.87,35.54,56.76,53.35,2.47,2.33,4.8,4.79,7.04,7.32,3.78,4.26,3.74,4.88-.37,8.73-12.39,11.63-24.78,23.26-37.24,34.83-14.95,13.89-29.95,27.72-44.96,41.55-5.24,4.83-7.25,5.27-11.59,2.76-6.21-3.58-7.33-8.31-2.79-14.2,2.92-3.79,6.33-7.29,9.83-10.63,15.6-14.92,31.32-29.74,46.97-44.61,1.2-1.14,2.28-2.41,4.12-4.36Z"/><path d="M2479.92,1116.87c5.73,5.5,11.45,11.01,17.18,16.51,13.64,13.09,27.28,26.18,40.9,39.28,1.05,1.01,2.05,2.07,2.94,3.21,3.47,4.45,1.09,13.33-4.45,14.67-2.45.6-6.02-.49-8.23-1.96-4.26-2.83-8.08-6.3-11.78-9.79-23.87-22.47-47.67-45.01-71.46-67.55-5.88-5.57-5.95-7.06.03-12.74,25.68-24.4,51.41-48.75,77.19-73.05,2.09-1.97,4.54-3.78,7.17-5,5.24-2.43,7.35-1.89,10.46,1.76,3.57,4.19,4.21,8.66,1.15,12.22-2.82,3.28-6.09,6.23-9.28,9.21-16.82,15.79-33.69,31.53-50.51,47.32-1.18,1.11-2.14,2.42-4.27,4.86,7.84,0,14.2,0,20.55,0,77.77-.06,155.55-.15,233.32-.17,9,0,18,.23,26.99.58,6.37.25,6.66.65,7.64,6.39.24,1.39.43,2.81.41,4.21-.07,4.97-1.21,6.25-6.51,6.6-7.23.48-14.48.99-21.72.99-77.27.06-154.55,0-231.82.02-8.38,0-16.77.22-25.15.34-.25.69-.5,1.38-.75,2.07Z"/><path d="M834.48,1318.52c-12.05,0-22.66-.1-33.27.02-14.65.17-29.22.09-43.3-4.91-11.56-4.1-21.86-10.24-30.9-18.51-18.68-17.08-31.98-38.07-42.73-60.72-11.37-23.98-21.75-48.44-33.2-72.38-9.18-19.2-20.61-37.05-37.21-50.79-11.29-9.34-23.97-16.07-39.01-16.57-15.45-.51-30.91-.54-46.37-.88-6.05-.13-12.11-.41-18.15-.82-4.07-.28-5.02-1.32-5.47-5.36-.16-1.45-.17-2.95.03-4.39.62-4.5,1.7-5.79,6.42-5.97,12.1-.44,24.22-.75,36.33-.77,8.98-.02,17.98.17,26.93.83,18.84,1.39,35.41,8.54,50.05,20.54,15.33,12.56,26.26,28.51,36.06,45.48,9.56,16.55,16.51,34.31,24.24,51.7,8.25,18.56,16.46,37.14,26.93,54.58,6.27,10.45,13.51,20.19,22.24,28.73,9.72,9.51,20.87,16.92,33.99,20.38,7.59,2,15.64,2.75,23.52,3.01,13.34.44,26.71.06,40.07,0,.35,0,.69-.38,1.73-.99-1.33-1.55-2.54-3.09-3.88-4.51-7.44-7.92-14.92-15.81-22.37-23.73-.72-.76-1.36-1.6-1.98-2.44-3.82-5.25-3.93-7.36-.55-10.32,4.78-4.18,8.38-4.45,12.6-.35,9.46,9.19,18.75,18.55,28.1,27.85,5.78,5.75,11.62,11.46,17.28,17.33,1.79,1.86,3.08,4.2,4.65,6.39-16.07,15.73-31.58,30.93-47.13,46.09-1.64,1.6-3.4,3.13-5.29,4.41-3.42,2.3-6.87,1.97-9.71-.65-2.57-2.38-3.04-6.34-.92-9.75,1.1-1.76,2.47-3.39,3.92-4.9,7.25-7.54,14.57-15.01,21.84-22.53,1.26-1.3,2.39-2.71,4.5-5.11Z"/><path d="M834.17,1076.45c-2.66-3.24-4.18-5.36-5.98-7.21-7.72-7.97-15.58-15.81-23.26-23.81-3.6-3.76-3.61-5.96-.72-9.97,3.59-4.97,7.27-5.54,12.68-1,5.27,4.42,10.08,9.41,14.98,14.27,7.58,7.51,15.11,15.06,22.56,22.69,3.35,3.44,6.65,6.96,9.64,10.72,2.87,3.61,2.64,4.76-.62,7.98-7.59,7.5-15.22,14.96-22.82,22.44-6.71,6.6-13.38,13.23-20.13,19.8-1.64,1.6-3.37,3.16-5.27,4.43-3.83,2.56-7.21,2.19-10.15-.82-2.74-2.81-3.11-6.73-.49-10.3,2.48-3.37,5.18-6.61,8.11-9.58,6.89-6.99,13.99-13.79,21-20.67-.18-.48-.36-.96-.54-1.45-1.89,0-3.78-.02-5.67,0-15.04.16-30.08.47-45.11.46-16.27-.01-29.89,6.62-42.23,16.51-14.98,12.01-25.21,27.82-34.45,44.36-2.45,4.38-4.76,8.84-7.18,13.23-2.46,4.46-3.85,4.96-8.51,3.44-1.76-.58-3.58-1-5.61-1.56-2.13-3.84-.75-7.74.83-11.25,9.7-21.57,21.87-41.51,39.47-57.59,15.57-14.23,33.49-23.52,54.89-24.31,15.02-.56,30.07-.36,45.11-.52,2.61-.03,5.23-.15,9.48-.29Z"/><path d="M543.05,1302.44c12.7-.86,25.39-1.72,38.09-2.58,6.21-.42,11.51-3.48,16.9-6.08,11.48-5.53,20.68-14.03,29.16-23.42,10.07-11.15,16.96-24.37,24.25-37.33,1.44-2.55,2.76-5.17,4.34-7.63,2.28-3.53,4.6-4.64,7.13-3.73,4.72,1.7,7.91,5.9,6.75,9.88-1.28,4.4-2.96,8.75-5.06,12.82-10.29,19.9-22.93,38.09-40.22,52.52-15.71,13.11-33.86,20.73-54.38,21.37-17.12.53-34.27.15-51.41.11-2.29,0-4.61-.24-6.86-.65-2.55-.46-5.6-.08-6.67-3.57-1.22-3.97.02-7.56,2.03-10.75.64-1.02,2.99-1.31,4.56-1.33,10.45-.11,20.89-.06,31.34-.06.02.14.03.28.05.42Z"/><path d="M361.79,1098.47c-3.14-3.49-5.27-5.96-7.52-8.32-7.2-7.58-14.53-15.05-21.62-22.73-2.96-3.21-2.86-6.81-.37-10.25,2.8-3.86,5.4-4.49,9.63-2.13,1.81,1.01,3.68,2.1,5.14,3.54,13.37,13.28,26.66,26.62,39.93,39.99,1.47,1.48,2.75,3.16,4.03,4.82,3.51,4.53,3.28,5.24-.8,9.29-9.79,9.72-19.36,19.67-29.16,29.39-5.64,5.6-11.4,11.08-17.37,16.32-4.98,4.36-7.29,3.94-11.4-1.18-2.36-2.94-2.77-5.4-.33-8.51,4.64-5.92,9.55-11.63,14.56-17.24,3.62-4.06,7.6-7.79,11.36-11.73.95-1,1.67-2.21,3.02-4.02-4.22,0-7.62-.04-11.02,0-24.85.34-49.83-.75-74.53,1.37-38.1,3.27-65.46,23.7-82.47,58.17-6.43,13.04-9.09,26.98-9.78,41.27-.55,11.34,1.47,22.55,4.18,33.58.55,2.24,1.19,4.49,1.34,6.77.29,4.58-2.78,8.07-7.3,8.68-4.47.61-7-1.42-8.57-6.09-3.69-10.98-6.46-22.15-6.63-33.77-.11-7.52-.28-15.17.84-22.56,5.24-34.38,21.65-62.34,49.93-82.5,19.99-14.26,42.59-21.69,67.34-21.72,22.77-.03,45.54-.05,68.31-.1,2.62,0,5.25-.2,9.26-.36Z"/><path d="M81.1,1323.51c9.19,0,18.39-.14,27.58.03,16.22.3,31.27-3.71,45.6-11.29,22.29-11.8,38.49-29.3,48.33-52.42,9.25-21.74,10.05-44.3,4.09-67.14-1-3.84-1.94-7.72-2.67-11.62-.92-4.94,1.26-8.58,5.62-9.85,4.14-1.21,7.55.35,9.64,4.8,3.96,8.4,6.43,17.35,7.44,26.49,2,18.08,1.07,36.09-4.41,53.56-5.42,17.27-14.69,32.28-26.97,45.57-18.55,20.08-41.06,32.65-67.94,37.17-6.15,1.03-12.41,1.96-18.62,1.99-21.94.12-43.87-.16-65.81-.29-1.04,0-2.09-.03-3.13-.13-7.26-.71-9.07-3.07-7.93-10.28.68-4.27,1.41-5.18,5.98-5.88,3.08-.48,6.23-.63,9.35-.65,11.28-.07,22.57-.03,33.85-.03v-.03Z"/><path d="M31.5,1116.33c8.51,8.62,16.04,16.12,23.42,23.76,2.61,2.7,5.09,5.57,7.24,8.64,2.67,3.83,1.61,7.13-3.12,11.34-2.78,2.47-4.66,2.64-8.24-.5-5.34-4.69-10.44-9.66-15.44-14.72-10.74-10.88-21.37-21.87-32-32.86-4.56-4.71-4.42-5.7.09-10.24,12.69-12.76,25.3-25.61,37.99-38.38,2.51-2.52,5.09-4.99,7.84-7.24,4.46-3.64,8.09-3.56,11.64-.04,3.53,3.49,3.85,7.54.05,11.68-6.35,6.93-13.16,13.45-19.68,20.23-3.01,3.13-5.81,6.46-8.92,9.94,1.17.11,2.48.33,3.8.35,26.95.29,53.94-.24,80.83,1.09,21.76,1.07,42.05,8.14,59.72,21.59,1,.76,2.05,1.48,2.9,2.39,5.14,5.52,3.29,12.54-3.83,14.94-2.87.97-4.75-.83-6.89-2.04-7.05-4-13.94-8.34-21.2-11.93-10.44-5.17-21.8-7.41-33.31-7.69-24.86-.6-49.73-.63-74.6-.86-2.25-.02-4.49.28-8.3.54Z"/><path d="M314.23,1340.89c-9.81,0-19.63.13-29.44-.03-24.63-.39-47.09-7.74-67.46-21.59-1.69-1.15-3.18-2.7-4.46-4.3-3.03-3.77-2.89-6.98.2-10.65,2.55-3.04,5.3-3.59,9.4-1.43,4.05,2.14,7.93,4.6,11.92,6.86,15.32,8.67,31.62,13.79,49.36,13.75,21.5-.04,43.01,0,64.51.02,1.46,0,2.93-.07,4.38.05,7.76.62,11.21,5.92,8.31,13.03-.48,1.19-1.85,2.45-3.07,2.81-2.56.76-5.29,1.27-7.96,1.3-11.9.13-23.8.06-35.7.06v.11Z"/><path class="cls-1" d="M1487.4,2077.23c-1.97-1.91-1.97-5.01,0-6.95,1.99-1.91,5.18-1.91,7.16,0l153.12,148.93c1.97,1.91,1.97,5.01,0,6.95-1.99,1.91-5.18,1.91-7.14,0l-153.14-148.93ZM1485.93,2317.98c0-2.71,2.25-4.9,5.06-4.9s5.04,2.19,5.04,4.9v69.55l326.2-317.25c1.99-1.91,5.18-1.91,7.16,0,1.97,1.93,1.97,5.03,0,6.96l-326.22,317.23h71.52c2.79,0,5.04,2.19,5.04,4.9s-2.25,4.92-5.04,4.92h-83.7c-2.81,0-5.06-2.19-5.06-4.92v-81.4ZM1820.76,2317.98c0-2.71,2.25-4.9,5.06-4.9s5.04,2.19,5.04,4.9v81.4c0,2.71-2.25,4.92-5.04,4.92h-83.72c-2.79,0-5.04-2.19-5.04-4.92s2.25-4.9,5.04-4.9h71.52l-144.51-140.54c-1.97-1.91-1.97-5.01,0-6.95,1.99-1.91,5.18-1.91,7.14,0l144.51,140.54v-69.55Z"/><path class="cls-1" d="M612.26,2144.8c-2.36-2.25-2.38-5.95,0-8.25l49.26-47.91c2.32-2.25,6.1-2.25,8.41,0,2.32,2.25,2.32,5.93,0,8.18l-39.14,38.06h133.53c57.52,0,104.56,45.74,104.56,101.68s-47.04,101.68-104.56,101.68c-3.28,0-5.94-2.6-5.94-5.8s2.65-5.78,5.94-5.78c50.95,0,92.66-40.56,92.66-90.11s-41.71-90.11-92.66-90.11h-133.53l39.14,38.06c2.32,2.25,2.32,5.93,0,8.18-2.32,2.27-6.1,2.27-8.41,0l-49.26-47.91ZM661.52,2288.62c-2.32-2.28-2.32-5.93,0-8.2,2.32-2.25,6.1-2.25,8.41,0l49.29,47.93c2.36,2.3,2.34,5.97-.02,8.25l-49.26,47.91c-2.32,2.25-6.1,2.25-8.41,0-2.32-2.28-2.32-5.93,0-8.18l39.14-38.06h-133.53c-57.52,0-104.56-45.74-104.56-101.68s47.04-101.68,104.56-101.68c3.28,0,5.94,2.58,5.94,5.8s-2.65,5.78-5.94,5.78c-50.95,0-92.66,40.56-92.66,90.11s41.71,90.11,92.66,90.11h133.53l-39.14-38.06Z"/><path class="cls-1" d="M1077.6,2071.63c-2.91,0-5.27-2.29-5.27-5.1s2.35-5.12,5.27-5.12h261.83c3.31-.14,5.72,2.17,5.72,5.12h0v255.06c0,2.83-2.35,5.14-5.27,5.14s-5.29-2.31-5.29-5.14v-242.68l-76.87,74.76v210.44c0,2.83-2.35,5.14-5.29,5.14s-5.27-2.31-5.27-5.14v-200.16l-76.87,74.76v167.92c0,2.83-2.37,5.12-5.29,5.12s-5.27-2.29-5.27-5.12v-157.66l-165.85,161.29c-2.07,2-5.41,2-7.46,0-2.07-2.02-2.07-5.26,0-7.25l165.83-161.29h-162.1c-2.91,0-5.29-2.31-5.29-5.14s2.37-5.14,5.29-5.14h172.67l76.87-74.76h-205.84c-2.91,0-5.27-2.29-5.27-5.12s2.35-5.14,5.27-5.14h216.39l76.89-74.78h-249.56Z"/><path class="cls-1" d="M267.54,2231.43c2.93,0,5.29,2.31,5.29,5.14s-2.35,5.12-5.29,5.12h-74.67l165.84,161.28c2.05,2.02,2.05,5.26,0,7.25-2.07,2.02-5.41,2.02-7.46,0l-165.84-161.26v72.62c0,2.83-2.37,5.14-5.29,5.14s-5.27-2.31-5.27-5.14v-85.02c0-2.83,2.35-5.14,5.27-5.14h87.42ZM336.14,2324.15c-1.46,2.46-4.67,3.3-7.18,1.86-2.53-1.42-3.39-4.54-1.93-6.98,14.84-24.92,22.68-53.21,22.68-82.46,0-91.09-75.91-164.91-169.57-164.91s-169.57,73.82-169.57,164.91,75.93,164.91,169.57,164.91c30.08,0,59.18-7.62,84.79-22.05,2.51-1.42,5.74-.58,7.2,1.86,1.46,2.44.6,5.59-1.91,7-27.25,15.32-58.16,23.45-90.07,23.45C80.64,2411.75,0,2333.32,0,2236.57s80.64-175.17,180.12-175.17,180.12,78.42,180.12,175.17c0,31.05-8.34,61.08-24.11,87.58h0Z"/><path class="cls-1" d="M2808.48,2148.24c2.25-2.17,2.25-5.7,0-7.87-2.23-2.17-5.84-2.17-8.1,0l-274.85,267.3v-78.81c0-3.07-2.55-5.58-5.71-5.58s-5.74,2.51-5.74,5.58v92.26c0,3.07,2.55,5.58,5.74,5.58h94.87c3.16,0,5.71-2.5,5.71-5.58s-2.55-5.58-5.71-5.58h-81.06l274.85-267.3ZM2614.68,2046.46c-3.16,0-5.74,2.5-5.74,5.58s2.58,5.56,5.74,5.56h81.04l-274.85,267.32c-2.23,2.17-2.23,5.68,0,7.87,2.25,2.17,5.87,2.17,8.1,0l274.85-267.3v78.81c0,3.07,2.58,5.58,5.74,5.58s5.74-2.5,5.74-5.58v-92.26c0-3.07-2.58-5.58-5.74-5.58h-94.87Z"/><path class="cls-1" d="M4263.32,2342.12c0,3.51-2.92,6.36-6.54,6.36s-6.56-2.84-6.56-6.36v-257.47h-303.17l43.08,41.89c2.55,2.48,2.55,6.52,0,9-2.57,2.48-6.71,2.48-9.28,0l-54.22-52.73c-2.6-2.53-2.6-6.57,0-9.08l54.22-52.73c2.57-2.5,6.71-2.5,9.28,0,2.55,2.48,2.55,6.52,0,9l-43.08,41.89h309.73c3.61,0,6.54,2.84,6.54,6.36v263.85ZM4197.89,2346.62c-2.55-2.5-2.55-6.52,0-9.03,2.55-2.48,6.71-2.48,9.26,0l54.24,52.75c2.6,2.53,2.57,6.55,0,9.05l-54.24,52.75c-2.55,2.48-6.71,2.48-9.26,0-2.55-2.48-2.55-6.52,0-9l43.08-41.89h-309.73c-3.61,0-6.56-2.86-6.56-6.38v-263.83c0-3.51,2.95-6.38,6.56-6.38s6.54,2.87,6.54,6.38v257.47h303.2l-43.08-41.89Z"/><path class="cls-1" d="M3710.69,2084.36c-3.2,2.72-8.1,2.4-10.9-.71-2.8-3.12-2.47-7.88.73-10.6l48.09-40.86c3.2-2.72,8.1-2.4,10.9.71l42.04,46.79c2.8,3.12,2.45,7.85-.75,10.58-3.2,2.72-8.06,2.41-10.86-.71l-29.78-33.15-10.92,157.24c-.32,4.94-5.56,8.72-11.27,6.15l-121.59-48.49-11.45,164.96c-.32,4.94-5.56,8.72-11.27,6.15l-121.59-48.49-10.18,146.9,34.09-28.96c3.2-2.72,8.06-2.41,10.86.71,2.8,3.12,2.49,7.86-.71,10.58l-48.11,40.88c-3.2,2.72-8.08,2.38-10.88-.73l-42.02-46.77c-2.8-3.12-2.49-7.86.71-10.58,3.2-2.72,8.1-2.4,10.9.71l29.78,33.15,10.87-157.24h.04c.35-5.04,5.68-8.36,10.57-6.42l122.3,48.75,11.41-164.96h.04c.33-5.02,5.68-8.36,10.57-6.42l122.3,48.75,10.18-146.9-34.09,28.96Z"/><path class="cls-1" d="M3290.52,2053.34c2.19-2.11,5.7-2.11,7.89,0,2.17,2.11,2.17,5.55,0,7.65l-151.91,147.73h78.78c3.07,0,5.58,2.44,5.58,5.42s-2.5,5.4-5.58,5.4h-92.23c-3.07,0-5.58-2.41-5.58-5.4v-89.7c0-3.01,2.5-5.42,5.58-5.42s5.56,2.41,5.56,5.42v76.62l151.91-147.73ZM3092.5,2348.7c0,2.99-2.5,5.4-5.58,5.4s-5.56-2.41-5.56-5.4v-76.64l-151.91,147.73c-2.19,2.13-5.7,2.13-7.89,0-2.17-2.11-2.17-5.55,0-7.65l151.93-147.73h-78.81c-3.07,0-5.58-2.41-5.58-5.42s2.5-5.4,5.58-5.4h92.23c3.07,0,5.58,2.41,5.58,5.4v89.72Z"/><path class="cls-1" d="M4588.63,2457.27c0,3.05-2.55,5.53-5.68,5.53s-5.68-2.48-5.68-5.53v-260.99l-84.32,82.01c-2.21,2.17-5.81,2.17-8.02,0-2.23-2.15-2.23-5.63,0-7.8l93.98-91.39c2.25-2.21,5.86-2.21,8.09-.02l94,91.41c2.23,2.17,2.23,5.65,0,7.8-2.21,2.17-5.79,2.17-8.02,0l-84.32-82.01v260.99ZM4776.67,2228.67c0,3.05-2.53,5.51-5.66,5.51s-5.68-2.46-5.68-5.51v-131.66h-364.75v131.66c0,3.05-2.53,5.51-5.66,5.51s-5.68-2.46-5.68-5.51v-137.16c0-3.05,2.53-5.53,5.68-5.53h376.1c3.13,0,5.66,2.48,5.66,5.53v137.16Z"/><path class="cls-1" d="M2195.82,2291.47c0,3.66-3.04,6.61-6.8,6.61s-6.83-2.96-6.83-6.61v-258.51l-101.28,98.49c-2.65,2.58-6.95,2.58-9.63,0-2.65-2.58-2.65-6.79,0-9.37l112.87-109.77c2.7-2.63,7.01-2.63,9.71,0l112.87,109.77c2.65,2.58,2.65,6.79,0,9.37-2.65,2.58-6.98,2.58-9.63,0l-101.28-98.49v258.51ZM1958.39,2351.06c-2.65-2.61-2.65-6.79,0-9.39,2.65-2.58,6.98-2.58,9.63,0l101.28,98.49v-258.48c0-3.66,3.04-6.64,6.8-6.64s6.83,2.98,6.83,6.64v258.48l101.28-98.49c2.65-2.58,6.95-2.58,9.63,0,2.65,2.6,2.65,6.79,0,9.39l-112.87,109.77c-2.7,2.63-7.03,2.63-9.71-.03l-112.87-109.74Z"/></svg>