<?xml version="1.0" encoding="UTF-8"?><svg id="Layer_1" xmlns="http://www.w3.org/2000/svg" viewBox="0 0 126.05 144.72"><defs><style>.cls-1{fill:none;}.cls-1,.cls-2{opacity:1;stroke:#4e4e4e;stroke-miterlimit:10;}.cls-2{fill:#4e4e4e;}</style></defs><polygon class="cls-1" points="123.38 37.52 93.2 20.1 63.03 37.52 63.03 72.36 93.2 89.78 123.38 72.36 123.38 37.52"/><path class="cls-2" d="M125.55,37.52c0,2.9-4.36,2.9-4.36,0s4.36-2.9,4.36,0Z"/><path class="cls-2" d="M95.38,20.1c0,2.9-4.36,2.9-4.36,0s4.36-2.9,4.36,0Z"/><path class="cls-2" d="M65.2,37.52c0,2.9-4.36,2.9-4.36,0s4.36-2.9,4.36,0Z"/><path class="cls-2" d="M65.2,72.36c0,2.9-4.36,2.9-4.36,0s4.36-2.9,4.36,0Z"/><path class="cls-2" d="M95.38,89.78c0,2.9-4.36,2.9-4.36,0s4.36-2.9,4.36,0Z"/><path class="cls-2" d="M125.55,72.36c0,2.9-4.36,2.9-4.36,0s4.36-2.9,4.36,0Z"/><polygon class="cls-1" points="93.2 20.1 63.03 2.68 32.85 20.1 32.85 54.94 63.03 72.36 93.2 54.94 93.2 20.1"/><path class="cls-2" d="M95.38,20.1c0,2.9-4.36,2.9-4.36,0s4.36-2.9,4.36,0Z"/><path class="cls-2" d="M65.2,2.68c0,2.9-4.36,2.9-4.36,0s4.36-2.9,4.36,0Z"/><path class="cls-2" d="M35.03,20.1c0,2.9-4.36,2.9-4.36,0s4.36-2.9,4.36,0Z"/><path class="cls-2" d="M35.03,54.94c0,2.9-4.36,2.9-4.36,0s4.36-2.9,4.36,0Z"/><path class="cls-2" d="M65.2,72.36c0,2.9-4.36,2.9-4.36,0s4.36-2.9,4.36,0Z"/><path class="cls-2" d="M95.38,54.94c0,2.9-4.36,2.9-4.36,0s4.36-2.9,4.36,0Z"/><polygon class="cls-1" points="63.03 37.52 32.85 20.1 2.68 37.52 2.68 72.36 32.85 89.78 63.03 72.36 63.03 37.52"/><path class="cls-2" d="M65.2,37.52c0,2.9-4.36,2.9-4.36,0s4.36-2.9,4.36,0Z"/><path class="cls-2" d="M35.03,20.1c0,2.9-4.36,2.9-4.36,0s4.36-2.9,4.36,0Z"/><path class="cls-2" d="M4.86,37.52c0,2.9-4.36,2.9-4.36,0s4.36-2.9,4.36,0Z"/><path class="cls-2" d="M4.86,72.36c0,2.9-4.36,2.9-4.36,0s4.36-2.9,4.36,0Z"/><path class="cls-2" d="M35.03,89.78c0,2.9-4.36,2.9-4.36,0s4.36-2.9,4.36,0Z"/><path class="cls-2" d="M65.2,72.36c0,2.9-4.36,2.9-4.36,0s4.36-2.9,4.36,0Z"/><polygon class="cls-1" points="63.03 72.36 32.85 54.94 2.68 72.36 2.68 107.2 32.85 124.63 63.03 107.2 63.03 72.36"/><path class="cls-2" d="M65.2,72.36c0,2.9-4.36,2.9-4.36,0s4.36-2.9,4.36,0Z"/><path class="cls-2" d="M35.03,54.94c0,2.9-4.36,2.9-4.36,0s4.36-2.9,4.36,0Z"/><path class="cls-2" d="M4.86,72.36c0,2.9-4.36,2.9-4.36,0s4.36-2.9,4.36,0Z"/><path class="cls-2" d="M4.86,107.2c0,2.9-4.36,2.9-4.36,0s4.36-2.9,4.36,0Z"/><path class="cls-2" d="M35.03,124.63c0,2.9-4.36,2.9-4.36,0s4.36-2.9,4.36,0Z"/><path class="cls-2" d="M65.2,107.2c0,2.9-4.36,2.9-4.36,0s4.36-2.9,4.36,0Z"/><polygon class="cls-1" points="93.2 89.78 63.03 72.36 32.85 89.78 32.85 124.63 63.03 142.05 93.2 124.63 93.2 89.78"/><path class="cls-2" d="M95.38,89.78c0,2.9-4.36,2.9-4.36,0s4.36-2.9,4.36,0Z"/><path class="cls-2" d="M65.2,72.36c0,2.9-4.36,2.9-4.36,0s4.36-2.9,4.36,0Z"/><path class="cls-2" d="M35.03,89.78c0,2.9-4.36,2.9-4.36,0s4.36-2.9,4.36,0Z"/><path class="cls-2" d="M35.03,124.63c0,2.9-4.36,2.9-4.36,0s4.36-2.9,4.36,0Z"/><path class="cls-2" d="M65.2,142.05c0,2.9-4.36,2.9-4.36,0s4.36-2.9,4.36,0Z"/><path class="cls-2" d="M95.38,124.63c0,2.9-4.36,2.9-4.36,0s4.36-2.9,4.36,0Z"/><polygon class="cls-1" points="123.38 72.36 93.2 54.94 63.03 72.36 63.03 107.2 93.2 124.63 123.38 107.2 123.38 72.36"/><path class="cls-2" d="M125.55,72.36c0,2.9-4.36,2.9-4.36,0s4.36-2.9,4.36,0Z"/><path class="cls-2" d="M95.38,54.94c0,2.9-4.36,2.9-4.36,0s4.36-2.9,4.36,0Z"/><path class="cls-2" d="M65.2,72.36c0,2.9-4.36,2.9-4.36,0s4.36-2.9,4.36,0Z"/><path class="cls-2" d="M65.2,107.2c0,2.9-4.36,2.9-4.36,0s4.36-2.9,4.36,0Z"/><path class="cls-2" d="M95.38,124.63c0,2.9-4.36,2.9-4.36,0s4.36-2.9,4.36,0Z"/><path class="cls-2" d="M125.55,107.2c0,2.9-4.36,2.9-4.36,0s4.36-2.9,4.36,0Z"/><polygon class="cls-1" points="63.03 2.68 25.31 24.45 25.31 68.01 63.03 89.78 100.74 68.01 100.74 24.45 63.03 2.68"/><polygon class="cls-1" points="40.4 15.74 2.68 37.52 2.68 81.07 40.4 102.85 78.11 81.07 78.11 37.52 40.4 15.74"/><polygon class="cls-1" points="40.4 41.87 2.68 63.65 2.68 107.2 40.4 128.98 78.11 107.2 78.11 63.65 40.4 41.87"/><polygon class="cls-1" points="63.03 54.94 25.31 76.72 25.31 120.27 63.03 142.05 100.74 120.27 100.74 76.72 63.03 54.94"/><polygon class="cls-1" points="85.66 41.87 47.94 63.65 47.94 107.2 85.66 128.98 123.38 107.2 123.38 63.65 85.66 41.87"/><polygon class="cls-1" points="85.66 15.74 47.94 37.52 47.94 81.07 85.66 102.85 123.38 81.07 123.38 37.52 85.66 15.74"/><polygon class="cls-1" points="123.38 37.52 63.03 37.52 93.2 89.78 123.38 37.52"/><polygon class="cls-1" points="63.03 37.52 2.68 37.52 32.85 89.78 63.03 37.52"/><polygon class="cls-1" points="93.2 89.78 32.85 89.78 63.03 142.05 93.2 89.78"/><polygon class="cls-1" points="123.38 107.2 93.2 54.94 63.03 107.2 123.38 107.2"/><polygon class="cls-1" points="93.2 54.94 63.03 2.68 32.85 54.94 93.2 54.94"/><polygon class="cls-1" points="63.03 107.2 32.85 54.94 2.68 107.2 63.03 107.2"/></svg>